<?xml version="1.0" encoding="UTF-8"?> <!-- Generator: Adobe Illustrator 19.0.0, SVG Export Plug-In . SVG Version: 6.00 Build 0) --> <svg xmlns="http://www.w3.org/2000/svg" xmlns:xlink="http://www.w3.org/1999/xlink" id="Camada_1" x="0px" y="0px" viewBox="209 -49 450 130" style="enable-background:new 209 -49 450 130;" xml:space="preserve"> <style type="text/css"> .st0{fill:none;} .st1{fill:#29166F;} </style> <g> <rect id="canvas_background" x="208" y="-50" class="st0" width="452" height="132"></rect> </g> <g> <title stroke="null">Layer 1</title> <g id="Camada_x0020_1"> <g id="_1368102112"> <path id="svg_3" class="st1" d="M236.8,2.6l20-11.1l20-11.1l0,0l0,0l11.3,6.3l11.3,6.3l11.3-6.3l11.3-6.3l0,0l0,0l20,11.1 l20,11.1c6.5,3.6,10.9,9.4,12.7,15.9c1.7,6.2,1.1,13-2.2,19c-0.3,0.6-0.7,1.2-1.1,1.8c-3.8,5.8-9.6,9.7-16.1,11.3 c-6.8,1.7-14.2,1-20.7-2.6L317,38.3l-17.6-9.8l-17.6,9.8l-17.6,9.8c-6.5,3.6-14,4.3-20.7,2.6c-6.5-1.7-12.4-5.6-16.1-11.5 c-0.3-0.5-0.6-1-0.9-1.6c-3.3-6-4-12.9-2.2-19.1C225.9,12.1,230.3,6.2,236.8,2.6L236.8,2.6z M276.7-9.1l-17.6,9.8l-17.6,9.7 c-4.3,2.4-7.2,6.2-8.3,10.5c-1.1,3.9-0.8,8.2,1.2,12.1c0.3,0.6,0.6,1.1,1,1.6c2.5,3.7,6.3,6.3,10.5,7.3c4.4,1.1,9.3,0.7,13.6-1.7 l31.3-17.4l31.4-17.4l0,0l0,0l0,0l0,0l0,0l0,0l0,0l0,0l14.3,7.9l14.3,7.9c1.1,0.6,1.9,1.7,2.2,2.8c0.3,1.1,0.2,2.4-0.5,3.5l0,0v0 c-0.7,1.1-1.7,1.8-2.9,2.1c-1.2,0.3-2.5,0.2-3.6-0.4l-12-6.7L322,16l-6.6,3.7l-6.6,3.6l15.3,8.5l15.3,8.5 c4.3,2.4,9.2,2.9,13.6,1.7c4.1-1.1,7.8-3.5,10.3-7.1c0.4-0.6,0.8-1.2,1.1-1.8c2-3.9,2.4-8.2,1.3-12.2c-1.2-4.3-4.1-8.1-8.3-10.5 l-17.6-9.7l-17.6-9.8l-34.7,19.2l-34.7,19.2c-1.1,0.6-2.5,0.8-3.6,0.4c-1.2-0.3-2.3-1-2.9-2.1l0,0l0,0c-0.6-1.1-0.8-2.4-0.5-3.5 c0.3-1.1,1.1-2.2,2.2-2.8l20.9-11.6l20.9-11.6l-6.6-3.6L276.7-9.1L276.7-9.1z"></path> <path id="svg_4" class="st1" d="M389.4,3.7v-17.6h11.7V3.8c0,2.1,0.2,3.5,0.7,4.2c0.5,0.8,1.3,1.2,2.5,1.2c1.2,0,2-0.4,2.5-1.2 c0.5-0.8,0.8-2.2,0.8-4.2v-17.6h11.7V3.7c0,2.3-0.2,4.2-0.5,5.7c-0.3,1.5-0.8,2.7-1.5,3.7c-1.3,2-3.1,3.6-5.3,4.6 c-2.2,1.1-4.8,1.6-7.7,1.6c-2.9,0-5.5-0.5-7.7-1.6c-2.2-1.1-4-2.6-5.3-4.6c-0.7-1-1.1-2.2-1.4-3.7C389.6,7.9,389.4,6,389.4,3.7 L389.4,3.7z M388.1,44.6v-11h2v11.1c0,0.7,0.2,1.2,0.5,1.6c0.3,0.3,0.8,0.5,1.5,0.5c0.7,0,1.2-0.2,1.5-0.5 c0.3-0.3,0.5-0.9,0.5-1.6V33.6h2v11c0,1.4-0.3,2.5-0.9,3.2c-0.6,0.7-1.6,1-3,1c-1.4,0-2.4-0.3-3-1 C388.4,47.1,388.1,46,388.1,44.6L388.1,44.6z M398.3,48.5v-10h1.8v1c0.2-0.4,0.5-0.6,0.9-0.8c0.4-0.2,0.8-0.3,1.2-0.3 c0.7,0,1.3,0.2,1.6,0.6c0.4,0.4,0.5,1,0.5,1.9v7.6h-1.9v-6.7c0-0.7-0.1-1.1-0.3-1.4c-0.2-0.2-0.5-0.4-0.9-0.4 c-0.4,0-0.7,0.1-0.9,0.4c-0.2,0.3-0.3,0.6-0.3,1.1v7C400.2,48.5,398.3,48.5,398.3,48.5z M406.5,35.5c0-0.3,0.1-0.6,0.3-0.8 c0.2-0.2,0.5-0.3,0.8-0.3c0.3,0,0.6,0.1,0.8,0.3c0.2,0.2,0.3,0.5,0.3,0.8c0,0.3-0.1,0.6-0.3,0.8c-0.2,0.2-0.5,0.3-0.8,0.3 c-0.3,0-0.6-0.1-0.8-0.3C406.6,36.1,406.5,35.8,406.5,35.5z M406.7,48.5v-10h1.8v10H406.7z M409.9,38.5h1.9l1,5.2 c0.1,0.3,0.1,0.7,0.2,1c0,0.4,0.1,0.8,0.1,1.3c0.1-0.6,0.1-1,0.2-1.4c0.1-0.4,0.1-0.7,0.2-0.9l1-5.3h1.9l-2.5,10h-1.5L409.9,38.5 L409.9,38.5z M419,42.4h2.8v-0.3c0-0.8-0.1-1.4-0.3-1.8c-0.2-0.4-0.6-0.6-1.1-0.6c-0.5,0-0.8,0.2-1.1,0.7 C419.1,40.9,419,41.6,419,42.4L419,42.4z M423.5,45.2v0.1c0,1.1-0.3,1.9-0.8,2.5c-0.5,0.6-1.3,0.9-2.2,0.9c-1.1,0-2-0.4-2.5-1.3 c-0.5-0.8-0.8-2.2-0.8-4c0-1.7,0.3-3,0.8-3.9c0.5-0.9,1.3-1.3,2.4-1.3c1.1,0,1.9,0.4,2.4,1.2c0.5,0.8,0.7,2,0.7,3.8v0.6H419v0.3 c0,1.1,0.1,1.8,0.4,2.3c0.2,0.5,0.6,0.7,1.1,0.7c0.4,0,0.7-0.2,0.9-0.5c0.2-0.3,0.3-0.8,0.4-1.5L423.5,45.2L423.5,45.2z M425.4,48.5v-10h1.8V40c0.3-0.5,0.6-0.9,1-1.2c0.4-0.3,0.9-0.4,1.5-0.4v1.9h-0.3c-0.7,0-1.2,0.2-1.6,0.5 c-0.3,0.4-0.5,0.9-0.5,1.7v6.1L425.4,48.5L425.4,48.5z M430.5,46.4c0.3,0.2,0.5,0.4,0.8,0.5c0.3,0.1,0.5,0.2,0.8,0.2 c0.4,0,0.7-0.1,1-0.4c0.2-0.2,0.4-0.5,0.4-0.9c0-0.4-0.3-1-1-1.6c-0.1-0.1-0.2-0.1-0.2-0.2c-0.7-0.6-1.1-1.1-1.3-1.5 c-0.2-0.4-0.3-0.9-0.3-1.3c0-0.8,0.3-1.5,0.8-2.1c0.5-0.5,1.2-0.8,2-0.8c0.3,0,0.5,0,0.8,0.1c0.3,0.1,0.5,0.2,0.8,0.3v1.9 c-0.2-0.2-0.4-0.4-0.7-0.5c-0.2-0.1-0.5-0.2-0.8-0.2c-0.3,0-0.6,0.1-0.8,0.3c-0.2,0.2-0.3,0.5-0.3,0.8c0,0.4,0.3,1,1,1.6 c0.1,0.1,0.2,0.2,0.3,0.3c0.6,0.6,1,1.1,1.3,1.5c0.2,0.4,0.4,1,0.4,1.5c0,0.9-0.3,1.5-0.8,2c-0.5,0.5-1.2,0.8-2.1,0.8 c-0.3,0-0.6,0-0.9-0.1c-0.3-0.1-0.6-0.2-0.9-0.3V46.4L430.5,46.4z M436.6,35.5c0-0.3,0.1-0.6,0.3-0.8c0.2-0.2,0.5-0.3,0.8-0.3 c0.3,0,0.6,0.1,0.8,0.3c0.2,0.2,0.3,0.5,0.3,0.8c0,0.3-0.1,0.6-0.3,0.8c-0.2,0.2-0.5,0.3-0.8,0.3c-0.3,0-0.6-0.1-0.8-0.3 C436.7,36.1,436.6,35.8,436.6,35.5L436.6,35.5z M436.8,48.5v-10h1.8v10H436.8z M442.4,43.5c0,1.3,0.1,2.2,0.3,2.7 c0.2,0.5,0.6,0.8,1.1,0.8c0.5,0,0.9-0.3,1.1-0.8c0.2-0.5,0.3-1.4,0.3-2.7c0-1.3-0.1-2.2-0.3-2.7c-0.2-0.5-0.6-0.8-1.1-0.8 c-0.5,0-0.9,0.3-1.1,0.8C442.5,41.3,442.4,42.2,442.4,43.5z M445.1,48.5v-1c-0.3,0.4-0.5,0.7-0.9,0.9c-0.3,0.2-0.7,0.3-1.1,0.3 c-0.9,0-1.5-0.4-2-1.3c-0.4-0.8-0.6-2.2-0.6-3.9c0-1.8,0.2-3.1,0.6-3.9c0.4-0.8,1.1-1.3,2-1.3c0.4,0,0.8,0.1,1.1,0.3 c0.3,0.2,0.6,0.5,0.9,0.9v-6.8h1.8v15.9H445.1z M453.3,48.5v-1c-0.3,0.4-0.5,0.7-0.9,0.9c-0.3,0.2-0.7,0.3-1.1,0.3 c-0.8,0-1.5-0.4-1.9-1.3c-0.4-0.9-0.7-2.2-0.7-3.9c0-1.7,0.2-3,0.6-3.9c0.4-0.9,1.1-1.3,1.9-1.3c0.4,0,0.8,0.1,1.1,0.3 c0.3,0.2,0.6,0.5,0.9,0.9v-1h1.8v10H453.3L453.3,48.5z M450.6,43.5c0,1.3,0.1,2.2,0.3,2.7c0.2,0.5,0.6,0.8,1.1,0.8 c0.5,0,0.8-0.3,1.1-0.8c0.2-0.5,0.3-1.4,0.3-2.7c0-1.3-0.1-2.2-0.3-2.7c-0.2-0.5-0.6-0.8-1.1-0.8c-0.5,0-0.9,0.3-1.1,0.8 C450.7,41.3,450.6,42.2,450.6,43.5z M458.8,43.5c0,1.3,0.1,2.2,0.3,2.7c0.2,0.5,0.6,0.8,1.1,0.8c0.5,0,0.9-0.3,1.1-0.8 c0.2-0.5,0.3-1.4,0.3-2.7c0-1.3-0.1-2.2-0.3-2.7c-0.2-0.5-0.6-0.8-1.1-0.8c-0.5,0-0.9,0.3-1.1,0.8 C458.9,41.3,458.8,42.2,458.8,43.5z M461.5,48.5v-1c-0.3,0.4-0.5,0.7-0.9,0.9c-0.3,0.2-0.7,0.3-1.1,0.3c-0.9,0-1.5-0.4-2-1.3 c-0.4-0.8-0.6-2.2-0.6-3.9c0-1.8,0.2-3.1,0.6-3.9c0.4-0.8,1.1-1.3,2-1.3c0.4,0,0.8,0.1,1.1,0.3c0.3,0.2,0.6,0.5,0.9,0.9v-6.8h1.8 v15.9H461.5L461.5,48.5z M466.8,42.4h2.8v-0.3c0-0.8-0.1-1.4-0.3-1.8c-0.2-0.4-0.6-0.6-1.1-0.6c-0.5,0-0.8,0.2-1.1,0.7 C466.9,40.9,466.8,41.6,466.8,42.4z M471.3,45.2v0.1c0,1.1-0.3,1.9-0.8,2.5c-0.5,0.6-1.3,0.9-2.2,0.9c-1.1,0-2-0.4-2.5-1.3 c-0.5-0.8-0.8-2.2-0.8-4c0-1.7,0.3-3,0.8-3.9c0.5-0.9,1.3-1.3,2.4-1.3c1.1,0,1.9,0.4,2.4,1.2c0.5,0.8,0.8,2,0.8,3.8v0.6h-4.6v0.3 c0,1.1,0.1,1.8,0.4,2.3c0.2,0.5,0.6,0.7,1.1,0.7c0.4,0,0.7-0.2,0.9-0.5c0.2-0.3,0.3-0.8,0.4-1.5L471.3,45.2L471.3,45.2z M477.3,48.5V33.6h6v1.8h-4v4.4h3.6v1.8h-3.6v5.1h4v1.9C483.3,48.5,477.3,48.5,477.3,48.5z M484.7,46.4c0.3,0.2,0.5,0.4,0.8,0.5 c0.3,0.1,0.5,0.2,0.8,0.2c0.4,0,0.7-0.1,1-0.4c0.2-0.2,0.4-0.5,0.4-0.9c0-0.4-0.3-1-1-1.6c-0.1-0.1-0.2-0.1-0.2-0.2 c-0.7-0.6-1.1-1.1-1.3-1.5c-0.2-0.4-0.3-0.9-0.3-1.3c0-0.8,0.3-1.5,0.8-2.1c0.5-0.5,1.2-0.8,2-0.8c0.3,0,0.5,0,0.8,0.1 c0.3,0.1,0.5,0.2,0.8,0.3v1.9c-0.2-0.2-0.4-0.4-0.7-0.5c-0.2-0.1-0.5-0.2-0.8-0.2c-0.3,0-0.6,0.1-0.8,0.3 c-0.2,0.2-0.3,0.5-0.3,0.8c0,0.4,0.3,1,1,1.6c0.1,0.1,0.2,0.2,0.3,0.3c0.6,0.6,1,1.1,1.3,1.5c0.2,0.4,0.4,1,0.4,1.5 c0,0.9-0.3,1.5-0.8,2c-0.5,0.5-1.2,0.8-2.1,0.8c-0.3,0-0.6,0-0.9-0.1c-0.3-0.1-0.6-0.2-0.9-0.3V46.4L484.7,46.4z M491.1,48.5 v-8.7h-1v-1.4h1v-2.7h1.8v2.7h1.4v1.4h-1.4v8.7H491.1z M499.7,48.5v-1c-0.3,0.4-0.5,0.7-0.9,0.9c-0.3,0.2-0.7,0.3-1.1,0.3 c-0.8,0-1.5-0.4-1.9-1.3c-0.4-0.9-0.7-2.2-0.7-3.9c0-1.7,0.2-3,0.7-3.9c0.4-0.9,1.1-1.3,1.9-1.3c0.4,0,0.8,0.1,1.1,0.3 c0.3,0.2,0.6,0.5,0.9,0.9v-1h1.8v10H499.7z M497,43.5c0,1.3,0.1,2.2,0.3,2.7c0.2,0.5,0.6,0.8,1.1,0.8c0.5,0,0.8-0.3,1.1-0.8 c0.2-0.5,0.3-1.4,0.3-2.7c0-1.3-0.1-2.2-0.3-2.7c-0.2-0.5-0.6-0.8-1.1-0.8c-0.5,0-0.9,0.3-1.1,0.8C497.1,41.3,497,42.2,497,43.5 L497,43.5z M505.2,43.5c0,1.3,0.1,2.2,0.3,2.7c0.2,0.5,0.6,0.8,1.1,0.8c0.5,0,0.9-0.3,1.1-0.8c0.2-0.5,0.3-1.4,0.3-2.7 c0-1.3-0.1-2.2-0.3-2.7c-0.2-0.5-0.6-0.8-1.1-0.8c-0.5,0-0.9,0.3-1.1,0.8C505.3,41.3,505.2,42.2,505.2,43.5z M507.9,48.5v-1 c-0.3,0.4-0.5,0.7-0.9,0.9c-0.3,0.2-0.7,0.3-1.1,0.3c-0.9,0-1.5-0.4-2-1.3c-0.4-0.8-0.6-2.2-0.6-3.9c0-1.8,0.2-3.1,0.6-3.9 c0.4-0.8,1.1-1.3,2-1.3c0.4,0,0.8,0.1,1.1,0.3c0.3,0.2,0.6,0.5,0.9,0.9v-6.8h1.8v15.9H507.9L507.9,48.5z M512,45.6v-7.1h1.8v7.2 c0,0.5,0.1,0.8,0.3,1.1c0.2,0.2,0.5,0.4,0.9,0.4c0.4,0,0.7-0.1,0.9-0.4c0.2-0.2,0.3-0.6,0.3-1.1v-7.2h1.9v7.1 c0,1.1-0.2,1.9-0.7,2.4c-0.5,0.5-1.3,0.7-2.4,0.7c-1.1,0-1.9-0.2-2.3-0.7C512.2,47.5,512,46.7,512,45.6z M524.5,48.5v-1 c-0.3,0.4-0.5,0.7-0.9,0.9c-0.3,0.2-0.7,0.3-1.1,0.3c-0.8,0-1.5-0.4-1.9-1.3c-0.4-0.9-0.7-2.2-0.7-3.9c0-1.7,0.2-3,0.7-3.9 c0.4-0.9,1.1-1.3,1.9-1.3c0.4,0,0.8,0.1,1.1,0.3c0.3,0.2,0.6,0.5,0.9,0.9v-1h1.8v10H524.5z M521.8,43.5c0,1.3,0.1,2.2,0.3,2.7 c0.2,0.5,0.6,0.8,1.1,0.8c0.5,0,0.8-0.3,1.1-0.8c0.2-0.5,0.3-1.4,0.3-2.7c0-1.3-0.1-2.2-0.3-2.7c-0.2-0.5-0.6-0.8-1.1-0.8 c-0.5,0-0.9,0.3-1.1,0.8C521.9,41.3,521.8,42.2,521.8,43.5L521.8,43.5z M528.6,48.5V32.7h1.8v15.9H528.6z M538.3,43.5 c0,1.3,0.1,2.2,0.3,2.7c0.2,0.5,0.6,0.8,1.1,0.8c0.5,0,0.9-0.3,1.1-0.8c0.2-0.5,0.3-1.4,0.3-2.7c0-1.3-0.1-2.2-0.3-2.7 c-0.2-0.5-0.6-0.8-1.1-0.8c-0.5,0-0.9,0.3-1.1,0.8C538.4,41.3,538.3,42.2,538.3,43.5z M541,48.5v-1c-0.3,0.4-0.5,0.7-0.9,0.9 c-0.3,0.2-0.7,0.3-1.1,0.3c-0.9,0-1.5-0.4-2-1.3c-0.4-0.8-0.6-2.2-0.6-3.9c0-1.8,0.2-3.1,0.6-3.9c0.4-0.8,1.1-1.3,2-1.3 c0.4,0,0.8,0.1,1.1,0.3c0.3,0.2,0.6,0.5,0.9,0.9v-6.8h1.8v15.9H541z M546.2,42.4h2.8v-0.3c0-0.8-0.1-1.4-0.3-1.8 c-0.2-0.4-0.6-0.6-1.1-0.6c-0.5,0-0.8,0.2-1.1,0.7C546.3,40.9,546.2,41.6,546.2,42.4z M550.7,45.2v0.1c0,1.1-0.3,1.9-0.8,2.5 c-0.5,0.6-1.3,0.9-2.2,0.9c-1.1,0-2-0.4-2.5-1.3c-0.5-0.8-0.8-2.2-0.8-4c0-1.7,0.3-3,0.8-3.9c0.5-0.9,1.3-1.3,2.4-1.3 c1.1,0,1.9,0.4,2.4,1.2c0.5,0.8,0.7,2,0.7,3.8v0.6h-4.6v0.3c0,1.1,0.1,1.8,0.4,2.3c0.2,0.5,0.6,0.7,1.1,0.7 c0.4,0,0.7-0.2,0.9-0.5c0.2-0.3,0.3-0.8,0.4-1.5L550.7,45.2L550.7,45.2z M556.2,48.5l1.3-14.9h1.8l2,10.3l2.1-10.3h1.8l1.3,14.9 h-1.9L564,38.1l-2,10.5h-1.4l-2-10.5l-0.6,10.5H556.2z M569.7,43.5c0,1.2,0.1,2.1,0.4,2.7c0.2,0.6,0.6,0.9,1.1,0.9 c0.5,0,0.9-0.3,1.2-0.9c0.2-0.6,0.4-1.5,0.4-2.7c0-1.2-0.1-2.1-0.4-2.7c-0.2-0.6-0.6-0.9-1.2-0.9c-0.5,0-0.9,0.3-1.1,0.9 C569.8,41.4,569.7,42.3,569.7,43.5z M567.8,43.5c0-1.7,0.3-3,0.9-3.9c0.6-0.9,1.4-1.3,2.5-1.3c1.1,0,1.9,0.4,2.5,1.3 c0.6,0.9,0.9,2.2,0.9,3.9c0,1.7-0.3,3-0.9,3.9c-0.6,0.9-1.4,1.3-2.5,1.3c-1.1,0-1.9-0.4-2.5-1.3 C568.1,46.5,567.8,45.2,567.8,43.5z M576.4,48.5v-10h1.8v1c0.2-0.4,0.5-0.6,0.9-0.8c0.4-0.2,0.8-0.3,1.2-0.3 c0.7,0,1.3,0.2,1.6,0.6c0.4,0.4,0.5,1,0.5,1.9v7.6h-1.9v-6.7c0-0.7-0.1-1.1-0.3-1.4c-0.2-0.2-0.5-0.4-0.9-0.4 c-0.4,0-0.7,0.1-0.9,0.4c-0.2,0.3-0.3,0.6-0.3,1.1v7C578.2,48.5,576.4,48.5,576.4,48.5z M584.9,48.5v-8.7h-1v-1.4h1v-2.7h1.8v2.7 h1.4v1.4h-1.4v8.7H584.9z M590.6,42.4h2.8v-0.3c0-0.8-0.1-1.4-0.3-1.8c-0.2-0.4-0.6-0.6-1.1-0.6c-0.5,0-0.8,0.2-1.1,0.7 C590.7,40.9,590.6,41.6,590.6,42.4z M595.1,45.2v0.1c0,1.1-0.3,1.9-0.8,2.5c-0.5,0.6-1.3,0.9-2.2,0.9c-1.1,0-2-0.4-2.5-1.3 c-0.5-0.8-0.8-2.2-0.8-4c0-1.7,0.3-3,0.8-3.9c0.5-0.9,1.3-1.3,2.4-1.3c1.1,0,1.9,0.4,2.4,1.2c0.5,0.8,0.7,2,0.7,3.8v0.6h-4.6v0.3 c0,1.1,0.1,1.8,0.4,2.3c0.2,0.5,0.6,0.7,1.1,0.7c0.4,0,0.7-0.2,0.9-0.5c0.2-0.3,0.3-0.8,0.4-1.5L595.1,45.2L595.1,45.2z M596.4,46.4c0.3,0.2,0.5,0.4,0.8,0.5c0.3,0.1,0.5,0.2,0.8,0.2c0.4,0,0.7-0.1,1-0.4c0.2-0.2,0.4-0.5,0.4-0.9c0-0.4-0.3-1-1-1.6 c-0.1-0.1-0.2-0.1-0.2-0.2c-0.7-0.6-1.1-1.1-1.3-1.5c-0.2-0.4-0.3-0.9-0.3-1.3c0-0.8,0.3-1.5,0.8-2.1c0.5-0.5,1.2-0.8,2-0.8 c0.3,0,0.5,0,0.8,0.1c0.3,0.1,0.5,0.2,0.8,0.3v1.9c-0.2-0.2-0.4-0.4-0.6-0.5c-0.2-0.1-0.5-0.2-0.8-0.2c-0.3,0-0.6,0.1-0.8,0.3 c-0.2,0.2-0.3,0.5-0.3,0.8c0,0.4,0.3,1,1,1.6c0.1,0.1,0.2,0.2,0.3,0.3c0.6,0.6,1,1.1,1.3,1.5c0.2,0.4,0.4,1,0.4,1.5 c0,0.9-0.3,1.5-0.8,2c-0.5,0.5-1.2,0.8-2.1,0.8c-0.3,0-0.6,0-0.9-0.1c-0.3-0.1-0.6-0.2-0.9-0.3V46.4L596.4,46.4z M613.1,48.2 c-0.3,0.2-0.7,0.3-1,0.4c-0.3,0.1-0.7,0.1-1.1,0.1c-1.5,0-2.7-0.6-3.4-1.9c-0.8-1.3-1.1-3.1-1.1-5.6c0-2.6,0.4-4.5,1.2-5.8 c0.8-1.3,2-2,3.6-2c0.3,0,0.7,0,1,0.1c0.3,0.1,0.6,0.2,0.9,0.3v1.9c-0.3-0.1-0.6-0.2-0.8-0.3c-0.3-0.1-0.5-0.1-0.7-0.1 c-1.1,0-1.9,0.5-2.3,1.4c-0.5,0.9-0.7,2.4-0.7,4.5c0,1.9,0.2,3.3,0.7,4.2c0.5,0.9,1.2,1.4,2.2,1.4c0.3,0,0.6,0,0.9-0.1 c0.3-0.1,0.6-0.2,0.9-0.4L613.1,48.2L613.1,48.2z M614.7,48.5V32.7h1.8v15.9H614.7z M623,48.5v-1c-0.3,0.4-0.5,0.7-0.9,0.9 c-0.3,0.2-0.7,0.3-1.1,0.3c-0.8,0-1.5-0.4-1.9-1.3c-0.4-0.9-0.7-2.2-0.7-3.9c0-1.7,0.2-3,0.7-3.9c0.4-0.9,1.1-1.3,1.9-1.3 c0.4,0,0.8,0.1,1.1,0.3c0.3,0.2,0.6,0.5,0.9,0.9v-1h1.8v10H623L623,48.5z M620.3,43.5c0,1.3,0.1,2.2,0.3,2.7 c0.2,0.5,0.6,0.8,1.1,0.8c0.5,0,0.8-0.3,1.1-0.8c0.2-0.5,0.3-1.4,0.3-2.7c0-1.3-0.1-2.2-0.3-2.7c-0.2-0.5-0.6-0.8-1.1-0.8 c-0.5,0-0.9,0.3-1.1,0.8C620.4,41.3,620.3,42.2,620.3,43.5z M627.1,48.5v-10h1.8V40c0.3-0.5,0.6-0.9,1-1.2 c0.4-0.3,0.9-0.4,1.5-0.4v1.9H631c-0.7,0-1.2,0.2-1.6,0.5c-0.3,0.4-0.5,0.9-0.5,1.7v6.1L627.1,48.5L627.1,48.5z M634.1,43.5 c0,1.2,0.1,2.1,0.4,2.7c0.2,0.6,0.6,0.9,1.1,0.9c0.5,0,0.9-0.3,1.2-0.9c0.2-0.6,0.4-1.5,0.4-2.7c0-1.2-0.1-2.1-0.4-2.7 c-0.2-0.6-0.6-0.9-1.2-0.9c-0.5,0-0.9,0.3-1.1,0.9C634.3,41.4,634.1,42.3,634.1,43.5z M632.3,43.5c0-1.7,0.3-3,0.9-3.9 c0.6-0.9,1.4-1.3,2.5-1.3c1.1,0,1.9,0.4,2.5,1.3c0.6,0.9,0.9,2.2,0.9,3.9c0,1.7-0.3,3-0.9,3.9c-0.6,0.9-1.4,1.3-2.5,1.3 c-1.1,0-1.9-0.4-2.5-1.3C632.5,46.5,632.3,45.2,632.3,43.5z M640.2,46.4c0.3,0.2,0.5,0.4,0.8,0.5c0.3,0.1,0.5,0.2,0.8,0.2 c0.4,0,0.7-0.1,1-0.4c0.2-0.2,0.4-0.5,0.4-0.9c0-0.4-0.3-1-1-1.6c-0.1-0.1-0.2-0.1-0.2-0.2c-0.7-0.6-1.1-1.1-1.3-1.5 c-0.2-0.4-0.3-0.9-0.3-1.3c0-0.8,0.3-1.5,0.8-2.1c0.5-0.5,1.2-0.8,2-0.8c0.3,0,0.5,0,0.8,0.1c0.3,0.1,0.5,0.2,0.8,0.3v1.9 c-0.2-0.2-0.4-0.4-0.6-0.5c-0.2-0.1-0.5-0.2-0.8-0.2c-0.3,0-0.6,0.1-0.8,0.3c-0.2,0.2-0.3,0.5-0.3,0.8c0,0.4,0.3,1,1,1.6 c0.1,0.1,0.2,0.2,0.3,0.3c0.6,0.6,1,1.1,1.3,1.5c0.2,0.4,0.4,1,0.4,1.5c0,0.9-0.3,1.5-0.8,2c-0.5,0.5-1.2,0.8-2.1,0.8 c-0.3,0-0.6,0-0.9-0.1c-0.3-0.1-0.6-0.2-0.9-0.3L640.2,46.4L640.2,46.4z M386.9,28.4h258v1.2h-258V28.4L386.9,28.4z M424.6,18.5 V-4.4h10.8v3.2c1-1.3,2-2.3,3.2-2.9c1.2-0.6,2.5-1,3.9-1c2.4,0,4.4,0.7,5.8,2.2c1.4,1.5,2.1,3.5,2.1,6v15.4h-11.1V7 c0-1.1-0.1-1.9-0.4-2.4c-0.2-0.4-0.7-0.6-1.2-0.6c-0.6,0-1.1,0.3-1.5,0.8c-0.3,0.5-0.5,1.2-0.5,2.2v11.5H424.6z M466.9-11.5 c0,1.6-0.5,2.9-1.6,3.9c-1.1,1-2.5,1.4-4.4,1.4c-1.8,0-3.3-0.5-4.4-1.5c-1.1-1-1.6-2.3-1.6-3.9c0-1.6,0.5-2.9,1.6-3.8 c1.1-0.9,2.6-1.4,4.4-1.4c1.9,0,3.3,0.5,4.4,1.4C466.3-14.4,466.9-13.1,466.9-11.5z M455.3,18.5V-4.4h11.1v22.9H455.3L455.3,18.5 z M471.5,18.5V-4.4h10.6v3.2c0.9-1.4,1.8-2.4,2.9-3c1.1-0.6,2.3-1,3.6-1c1.6,0,2.9,0.4,4,1.2c1.1,0.8,1.9,2,2.6,3.7 c0.9-1.6,1.9-2.8,3.2-3.6c1.3-0.8,2.7-1.2,4.2-1.2c2.2,0,4,0.7,5.4,2.2c1.3,1.5,2,3.5,2,6v15.4h-10.7V7c0-1.2-0.1-2-0.3-2.4 c-0.2-0.4-0.6-0.6-1.1-0.6c-0.6,0-1,0.2-1.3,0.7c-0.3,0.5-0.4,1.2-0.4,2.3v11.5h-10.6V7c0-1.1-0.1-1.9-0.3-2.4 C485,4.2,484.6,4,484.1,4c-0.6,0-1,0.2-1.3,0.7c-0.3,0.5-0.4,1.2-0.4,2.3v11.5L471.5,18.5L471.5,18.5z M527,10.3 c0.8,0,1.5-0.3,2-0.9c0.5-0.6,0.8-1.3,0.8-2.3c0-0.9-0.2-1.7-0.7-2.3c-0.5-0.6-1.2-0.9-2-0.9c-0.8,0-1.5,0.3-2,0.9 c-0.5,0.6-0.7,1.3-0.7,2.3c0,0.9,0.2,1.7,0.7,2.3C525.6,10,526.2,10.3,527,10.3z M540.4,7.1c0,1.7-0.4,3.4-1.1,4.9 c-0.7,1.6-1.8,2.9-3.2,4.1c-1.2,1-2.6,1.8-4.1,2.4c-1.5,0.5-3.2,0.8-5,0.8c-1.8,0-3.4-0.3-5-0.8c-1.5-0.5-2.9-1.3-4.1-2.4 c-1.4-1.1-2.4-2.5-3.2-4.1c-0.7-1.6-1.1-3.2-1.1-5c0-1.7,0.4-3.4,1.1-5c0.7-1.6,1.8-2.9,3.2-4.1c1.2-1,2.6-1.8,4.1-2.4 c1.5-0.5,3.2-0.8,5-0.8c1.8,0,3.5,0.3,5,0.8c1.5,0.5,2.9,1.3,4.2,2.4c1.3,1.1,2.4,2.5,3.1,4.1C540,3.8,540.4,5.4,540.4,7.1z M544.2,18.5V-4.4H555v3.2c1-1.3,2-2.3,3.2-2.9c1.2-0.6,2.5-1,3.9-1c2.4,0,4.4,0.7,5.8,2.2c1.4,1.5,2.1,3.5,2.1,6v15.4h-11.1V7 c0-1.1-0.1-1.9-0.4-2.4c-0.2-0.4-0.7-0.6-1.2-0.6c-0.6,0-1.1,0.3-1.5,0.8c-0.3,0.5-0.5,1.2-0.5,2.2v11.5H544.2L544.2,18.5z M576.1,18.5V4.1H573v-8.4h3.2v-7.6h11.1v7.6h3.2v8.4h-3.2v14.4H576.1z M619.4,8.9l-15.8,0v0.4c0,1.2,0.2,2,0.6,2.6 c0.4,0.6,1.1,0.9,1.9,0.9c0.5,0,1-0.2,1.4-0.5c0.4-0.3,0.7-0.7,0.9-1.3l10.3,0.7c-0.9,2.5-2.4,4.4-4.6,5.7c-2.2,1.3-4.9,2-8.1,2 c-1.8,0-3.4-0.3-5-0.8c-1.5-0.5-2.9-1.3-4.2-2.4c-1.4-1.2-2.4-2.6-3.2-4.1c-0.7-1.6-1.1-3.2-1.1-4.9c0-1.7,0.4-3.4,1.1-5 c0.7-1.6,1.8-2.9,3.2-4.1c1.2-1,2.6-1.8,4.1-2.4c1.5-0.5,3.2-0.8,5-0.8c2.5,0,4.7,0.5,6.6,1.5c2,1,3.6,2.4,4.9,4.3 c0.7,1,1.2,2,1.5,3.2c0.3,1.2,0.5,2.4,0.5,3.8c0,0.4,0,0.6,0,0.8C619.4,8.6,619.4,8.8,619.4,8.9L619.4,8.9z M603.7,3.9l5,0 c0-0.9-0.3-1.6-0.7-2c-0.4-0.4-1-0.6-1.8-0.6c-0.7,0-1.3,0.2-1.7,0.7C604.1,2.4,603.8,3.1,603.7,3.9z M620.5,16.9l2.9-7.1 c1.2,0.8,2.3,1.5,3.4,1.9c1,0.4,1.9,0.6,2.6,0.6c0.6,0,1-0.1,1.3-0.3c0.3-0.2,0.5-0.6,0.5-1c0-0.6-0.7-1-2-1.3 c-0.4-0.1-0.8-0.2-1-0.2c-2.2-0.5-3.7-1.3-4.7-2.4c-1-1-1.5-2.4-1.5-4.1c0-2.4,1-4.4,3-5.9c2-1.5,4.6-2.3,7.8-2.3 c1.6,0,3.1,0.2,4.6,0.5c1.5,0.3,2.8,0.8,4.1,1.4l-2.7,6.9c-1-0.7-2-1.2-2.8-1.6c-0.8-0.3-1.5-0.5-2.1-0.5c-0.5,0-0.9,0.1-1.2,0.3 c-0.3,0.2-0.5,0.5-0.5,0.9c0,0.6,0.9,1,2.6,1.4c0.4,0.1,0.7,0.2,1,0.2c2.2,0.5,3.9,1.3,4.9,2.3c1.1,1,1.6,2.4,1.6,4 c0,2.6-1,4.7-3.1,6.3c-2.1,1.6-4.8,2.4-8.2,2.4c-1.9,0-3.7-0.2-5.4-0.6C623.8,18.3,622.1,17.7,620.5,16.9L620.5,16.9z"></path> </g> </g> </g> </svg> 