<?xml version="1.0" encoding="UTF-8"?> <svg xmlns="http://www.w3.org/2000/svg" width="200" height="135"><defs><style type="text/css"><![CDATA[ .fil0 {fill:#29166F} ]]></style></defs><g><title>background</title><rect fill="none" id="canvas_background" height="137" width="202" y="-1" x="-1"></rect></g><g><title>Layer 1</title><g stroke="null" id="Camada_x0020_1"><metadata stroke="null" transform="translate(-370.000244140625,-250.0001678466797) translate(-810.0005493164062,-515.0003662109375) translate(1380.923095703125,0) translate(0,480.386474609375) translate(-1380.923095703125,0) translate(569.0104370117188,0) translate(-310.0002136230469,-235.0001678466797) translate(-940.0099487304688,-800.0084838867188) translate(0,20.000211715698242) translate(1,1) translate(1,1) translate(-900.009521484375,-780.0082397460938) translate(1,1) translate(0,-26690) translate(0,-3) translate(0,-9) translate(0,-6) translate(0,0.296875) translate(1485,0) translate(-0.00018024444580078125,0) translate(-26870,0) translate(0.111328125,0) translate(1080.232421875,0) translate(0,10922.3486328125) translate(-1620.3485107421875,-8601.8505859375) translate(540.1161499023438,-2320.4990234375) translate(0,-17049.86328125) translate(28355.029296875,0) translate(-3883.449951171875,1675.05029296875) translate(-2916.75439453125,2175.0654296875) translate(-4591.8046875,2225.06689453125) translate(-3491.771484375,2300.069091796875) translate(-1470.1405029296875,50042.16015625) scale(0.8467730283737183) translate(1470.1405029296875,-50042.16015625) translate(-1736.1683349609375,59097.48828125) scale(0.8430968523025513) translate(1736.1683349609375,-59097.48828125) translate(-2059.275146484375,70095.7265625) scale(0.9514365196228027) translate(2059.275146484375,-70095.7265625) translate(-2164.385009765625,73673.578125) scale(0.7540690898895264) translate(2164.385009765625,-73673.578125) translate(-2870.2744140625,97701.359375) scale(0.8357474207878113) translate(2870.2744140625,-97701.359375) translate(-3434.380126953125,116902.9765625) scale(0.6290212869644165) translate(3434.380126953125,-116902.9765625) translate(-5459.87890625,185849) scale(0.8028092980384827) translate(5459.87890625,-185849) translate(3755.9609375,2337.686767578125) scale(0.1955445110797882) translate(-3755.9609375,-2337.686767578125) " id="CorelCorpID_0Corel-Layer"></metadata><path stroke="null" id="svg_1" d="m16.582668,92.555513l0,-11.599457l7.684987,0l0,11.654454c0,1.357659 0.16024,2.289596 0.485126,2.798087c0.318698,0.513738 0.8659,0.766845 1.649477,0.766845c0.767786,0 1.316721,-0.262809 1.646012,-0.788428c0.334143,-0.527401 0.497452,-1.450526 0.497452,-2.776504l0,-11.654454l7.685383,0l0,11.599457c0,1.514781 -0.099896,2.767247 -0.298897,3.755963c-0.199397,0.981241 -0.519035,1.804024 -0.957925,2.467013c-0.857089,1.333007 -2.023272,2.359147 -3.504192,3.067926c-1.482208,0.711798 -3.171782,1.065742 -5.067832,1.065742c-1.909218,0 -3.605871,-0.353944 -5.087188,-1.065742c-1.480475,-0.708779 -2.6475,-1.734919 -3.505083,-3.067926c-0.428742,-0.652841 -0.736896,-1.465525 -0.933273,-2.442361c-0.192813,-0.973766 -0.294046,-2.234103 -0.294046,-3.780615zm-0.867237,26.981212l0,-7.233275l1.310087,0l0,7.338963c0,0.474532 0.105688,0.823179 0.317856,1.04901c0.212168,0.222762 0.535767,0.337212 0.971984,0.337212c0.438494,0 0.761598,-0.11445 0.970697,-0.337212c0.20999,-0.225831 0.314342,-0.574478 0.314342,-1.04901l0,-7.338963l1.316275,0l0,7.233275c0,0.953965 -0.207812,1.650863 -0.624674,2.089308c-0.417802,0.439336 -1.074158,0.658137 -1.97664,0.658137c-0.901542,0 -1.557501,-0.218802 -1.9757,-0.658137c-0.415575,-0.438445 -0.624228,-1.135343 -0.624228,-2.089308zm6.765327,2.626362l0,-6.624888l1.201379,0l0,0.65987c0.162022,-0.241226 0.359637,-0.423495 0.592547,-0.54542c0.231573,-0.122371 0.500521,-0.182269 0.806942,-0.182269c0.486413,0 0.848723,0.136033 1.082474,0.405922c0.238157,0.269393 0.356171,0.68279 0.356171,1.235239l0,5.051546l-1.222517,0l0,-4.449742c0,-0.449484 -0.057671,-0.755856 -0.17519,-0.920501c-0.116678,-0.16024 -0.319638,-0.241672 -0.607991,-0.241672c-0.270284,0 -0.475869,0.085838 -0.612348,0.253998c-0.13732,0.167269 -0.205584,0.41998 -0.205584,0.751895l0,4.606022l-1.215884,0zm5.363264,-8.603706c0,-0.220534 0.073066,-0.407605 0.223603,-0.559924c0.147468,-0.154547 0.331915,-0.231128 0.55339,-0.231128c0.215683,0 0.398397,0.076581 0.545866,0.231128c0.149646,0.15232 0.222762,0.33939 0.222762,0.559924c0,0.215732 -0.076185,0.399288 -0.224098,0.550717c-0.153211,0.150587 -0.332361,0.225831 -0.544529,0.225831c-0.221475,0 -0.405922,-0.07262 -0.55339,-0.222712c-0.150538,-0.147468 -0.223603,-0.33241 -0.223603,-0.553835zm0.170339,8.603706l0,-6.624888l1.215884,0l0,6.624888l-1.215884,0zm2.113069,-6.624888l1.264347,0l0.689374,3.457066c0.040939,0.202961 0.076135,0.432306 0.108312,0.684968c0.030345,0.256226 0.058958,0.532252 0.086283,0.833377c0.04178,-0.363646 0.079204,-0.672246 0.111777,-0.92362c0.034355,-0.254889 0.066928,-0.447256 0.099055,-0.58022l0.674424,-3.47157l1.257713,0l-1.656556,6.624888l-0.97243,0l-1.662298,-6.624888zm5.978235,2.585423l1.854666,0l0,-0.16816c0,-0.547202 -0.070888,-0.938124 -0.215732,-1.182865c-0.143508,-0.242117 -0.375923,-0.363646 -0.694225,-0.363646c-0.311669,0 -0.544974,0.144399 -0.704818,0.435821c-0.16024,0.289689 -0.23989,0.716699 -0.23989,1.278851zm2.964465,1.82338l0,0.087174c0,0.699522 -0.174794,1.247615 -0.527401,1.64819c-0.350875,0.40107 -0.831149,0.601804 -1.439091,0.601804c-0.743084,0 -1.286326,-0.275581 -1.628835,-0.827189c-0.344241,-0.551162 -0.517699,-1.43424 -0.517699,-2.64354c0,-1.139749 0.173457,-1.991986 0.517699,-2.554138c0.342509,-0.563043 0.862831,-0.843921 1.561907,-0.843921c0.74353,0 1.278851,0.254889 1.606806,0.766845c0.329292,0.509778 0.493937,1.347115 0.493937,2.507952l0,0.386071l-3.031789,0l0,0.19504c0,0.69467 0.078363,1.195637 0.235088,1.509979c0.158903,0.312956 0.40805,0.471018 0.748381,0.471018c0.275136,0 0.485126,-0.108757 0.625515,-0.325777c0.142221,-0.216574 0.219247,-0.539282 0.233801,-0.971984l1.12168,-0.007524zm1.255931,2.216084l0,-6.624888l1.172767,0l0,0.964955c0.169943,-0.350429 0.38122,-0.614971 0.644029,-0.79328c0.25974,-0.179596 0.580666,-0.277314 0.959262,-0.294491l0,1.283257l-0.202515,0c-0.474087,0 -0.821447,0.117965 -1.039803,0.356122c-0.222316,0.235088 -0.332361,0.605764 -0.332361,1.1098l0,3.998526l-1.201379,0zm3.356278,-1.397707c0.17123,0.148359 0.341618,0.260186 0.509778,0.334588c0.168606,0.073066 0.341172,0.111381 0.516362,0.111381c0.256226,0 0.465325,-0.076185 0.629079,-0.232464c0.161131,-0.150092 0.241672,-0.346419 0.241672,-0.586804c0,-0.284393 -0.223603,-0.635218 -0.667791,-1.060495c-0.057671,-0.057225 -0.104352,-0.098164 -0.132964,-0.127222c-0.435376,-0.409832 -0.725065,-0.748381 -0.872533,-1.019556c-0.148755,-0.271175 -0.223603,-0.567894 -0.223603,-0.891443c0,-0.560419 0.17123,-1.013814 0.513738,-1.364243c0.341172,-0.353053 0.78625,-0.528292 1.330779,-0.528292c0.17915,0 0.357459,0.023811 0.530025,0.066928c0.173012,0.046681 0.346469,0.11445 0.517699,0.202515l0,1.249793c-0.132519,-0.151429 -0.275581,-0.265483 -0.430079,-0.336321c-0.154102,-0.071333 -0.335034,-0.108757 -0.536658,-0.108757c-0.225385,0 -0.411169,0.07262 -0.558637,0.21702c-0.145241,0.142667 -0.218356,0.325331 -0.218356,0.547202c0,0.291868 0.214841,0.63304 0.639673,1.024853c0.085838,0.079699 0.150538,0.136479 0.190585,0.177417c0.400625,0.37023 0.679721,0.701254 0.833377,0.997973c0.154498,0.297164 0.233306,0.629079 0.233306,0.994013c0,0.562152 -0.170834,1.010745 -0.514184,1.348848c-0.340727,0.333697 -0.796794,0.501858 -1.369985,0.501858c-0.18311,0 -0.372408,-0.021583 -0.566558,-0.059849c-0.194149,-0.04183 -0.390922,-0.100837 -0.594725,-0.184051l0,-1.274891zm3.99808,-7.205999c0,-0.220534 0.073957,-0.407605 0.223653,-0.559924c0.147914,-0.154547 0.332806,-0.231128 0.55334,-0.231128c0.215732,0 0.398397,0.076581 0.545866,0.231128c0.149696,0.15232 0.223653,0.33939 0.223653,0.559924c0,0.215732 -0.077026,0.399288 -0.224494,0.550717c-0.153211,0.150587 -0.333697,0.225831 -0.545024,0.225831c-0.220534,0 -0.405427,-0.07262 -0.55334,-0.222712c-0.149696,-0.147468 -0.223653,-0.33241 -0.223653,-0.553835zm0.170834,8.603706l0,-6.624888l1.215438,0l0,6.624888l-1.215438,0zm3.706658,-3.303855c0,0.847881 0.067769,1.440428 0.20999,1.781154c0.13732,0.338499 0.373299,0.510669 0.702591,0.510669c0.327064,0 0.563043,-0.17217 0.7017,-0.510669c0.138706,-0.340727 0.211327,-0.933273 0.211327,-1.781154c0,-0.851396 -0.07262,-1.445229 -0.211327,-1.787293c-0.138657,-0.338994 -0.374636,-0.509333 -0.7017,-0.509333c-0.329292,0 -0.565271,0.170339 -0.702591,0.509333c-0.142221,0.342063 -0.20999,0.935897 -0.20999,1.787293zm1.783778,3.303855l0,-0.648435c-0.166824,0.265483 -0.357904,0.46181 -0.5723,0.58329c-0.212168,0.124153 -0.456959,0.186229 -0.739569,0.186229c-0.58329,0 -1.013814,-0.278205 -1.289395,-0.833327c-0.273403,-0.556459 -0.41206,-1.420181 -0.41206,-2.591611c0,-1.174054 0.138657,-2.040449 0.41206,-2.596413c0.275581,-0.554231 0.706106,-0.833773 1.289395,-0.833773c0.285284,0 0.535321,0.060294 0.747044,0.182665c0.214841,0.121529 0.404139,0.31256 0.564825,0.573637l0,-4.491176l1.213706,0l0,10.468916l-1.213706,0zm5.410786,0l0,-0.648435c-0.166873,0.265483 -0.357904,0.46181 -0.5723,0.58329c-0.212614,0.124153 -0.458691,0.186229 -0.740015,0.186229c-0.557301,0 -0.979954,-0.290085 -1.268257,-0.870306c-0.287066,-0.582448 -0.432752,-1.439537 -0.432752,-2.573097c0,-1.127422 0.143954,-1.978373 0.428346,-2.556811c0.286125,-0.578488 0.710511,-0.868573 1.272663,-0.868573c0.285729,0 0.535767,0.060294 0.747935,0.182269c0.214396,0.122371 0.402803,0.313847 0.56438,0.574033l0,-0.633485l1.213706,0l0,6.624888l-1.213706,0zm-1.784669,-3.32232c0,0.846099 0.072175,1.443051 0.212168,1.788184c0.142221,0.349538 0.375527,0.522104 0.701749,0.522104c0.323549,0 0.55641,-0.176526 0.697294,-0.523441c0.141776,-0.350429 0.215287,-0.945599 0.215287,-1.786847c0,-0.847881 -0.073511,-1.440873 -0.210881,-1.783382c-0.139548,-0.338053 -0.375081,-0.508887 -0.7017,-0.508887c-0.330183,0 -0.565716,0.170834 -0.703927,0.508887c-0.140884,0.342509 -0.20999,0.935501 -0.20999,1.783382zm5.411677,0.018464c0,0.847881 0.068215,1.440428 0.209099,1.781154c0.137766,0.338499 0.373745,0.510669 0.703036,0.510669c0.327064,0 0.562597,-0.17217 0.702591,-0.510669c0.138211,-0.340727 0.20999,-0.933273 0.20999,-1.781154c0,-0.851396 -0.071779,-1.445229 -0.20999,-1.787293c-0.139993,-0.338994 -0.375527,-0.509333 -0.702591,-0.509333c-0.329292,0 -0.565271,0.170339 -0.703036,0.509333c-0.140884,0.342063 -0.209099,0.935897 -0.209099,1.787293zm1.783778,3.303855l0,-0.648435c-0.166873,0.265483 -0.35835,0.46181 -0.5723,0.58329c-0.212218,0.124153 -0.458295,0.186229 -0.739124,0.186229c-0.584181,0 -1.013863,-0.278205 -1.290286,-0.833327c-0.273849,-0.556459 -0.412505,-1.420181 -0.412505,-2.591611c0,-1.174054 0.138657,-2.040449 0.412505,-2.596413c0.276423,-0.554231 0.706106,-0.833773 1.290286,-0.833773c0.284343,0 0.533985,0.060294 0.746153,0.182665c0.214841,0.121529 0.403248,0.31256 0.565271,0.573637l0,-4.491176l1.214547,0l0,10.468916l-1.214547,0zm3.470679,-4.039464l1.856448,0l0,-0.16816c0,-0.547202 -0.071779,-0.938124 -0.21702,-1.182865c-0.143112,-0.242117 -0.375527,-0.363646 -0.693829,-0.363646c-0.311669,0 -0.544974,0.144399 -0.704769,0.435821c-0.16024,0.289689 -0.24083,0.716699 -0.24083,1.278851zm2.965356,1.82338l0,0.087174c0,0.699522 -0.174348,1.247615 -0.527847,1.64819c-0.35038,0.40107 -0.830704,0.601804 -1.438646,0.601804c-0.742193,0 -1.286326,-0.275581 -1.629676,-0.827189c-0.342954,-0.551162 -0.515966,-1.43424 -0.515966,-2.64354c0,-1.139749 0.173012,-1.991986 0.515966,-2.554138c0.34335,-0.563043 0.864563,-0.843921 1.561907,-0.843921c0.74353,0 1.279742,0.254889 1.606806,0.766845c0.331024,0.509778 0.494828,1.347115 0.494828,2.507952l0,0.386071l-3.032729,0l0,0.19504c0,0.69467 0.079254,1.195637 0.235979,1.509979c0.159349,0.312956 0.4081,0.471018 0.748381,0.471018c0.276027,0 0.485126,-0.108757 0.625565,-0.325777c0.141726,-0.216574 0.219198,-0.539282 0.233751,-0.971984l1.12168,-0.007524zm3.990605,2.216084l0,-9.859637l3.943528,0l0,1.189053l-2.614036,0l0,2.93011l2.390383,0l0,1.175391l-2.390383,0l0,3.335586l2.614036,0l0,1.229497l-3.943528,0zm4.849525,-1.397707c0.17123,0.148359 0.341568,0.260186 0.51062,0.334588c0.166873,0.073066 0.340331,0.111381 0.51552,0.111381c0.255335,0 0.465325,-0.076185 0.628634,-0.232464c0.161577,-0.150092 0.242117,-0.346419 0.242117,-0.586804c0,-0.284393 -0.223603,-0.635218 -0.667791,-1.060495c-0.057671,-0.057225 -0.104352,-0.098164 -0.133855,-0.127222c-0.434485,-0.409832 -0.724174,-0.748381 -0.871642,-1.019556c-0.14925,-0.271175 -0.223603,-0.567894 -0.223603,-0.891443c0,-0.560419 0.17123,-1.013814 0.513293,-1.364243c0.341618,-0.353053 0.786201,-0.528292 1.331225,-0.528292c0.178705,0 0.357459,0.023811 0.530025,0.066928c0.172566,0.046681 0.345578,0.11445 0.516807,0.202515l0,1.249793c-0.131627,-0.151429 -0.275581,-0.265483 -0.429188,-0.336321c-0.154102,-0.071333 -0.335034,-0.108757 -0.536658,-0.108757c-0.226277,0 -0.411169,0.07262 -0.559083,0.21702c-0.144845,0.142667 -0.217911,0.325331 -0.217911,0.547202c0,0.291868 0.214841,0.63304 0.639673,1.024853c0.085838,0.079699 0.150538,0.136479 0.19014,0.177417c0.400179,0.37023 0.680166,0.701254 0.833377,0.997973c0.154498,0.297164 0.233306,0.629079 0.233306,0.994013c0,0.562152 -0.170388,1.010745 -0.514629,1.348848c-0.340281,0.333697 -0.796794,0.501858 -1.369094,0.501858c-0.18311,0 -0.373299,-0.021583 -0.566558,-0.059849c-0.193258,-0.04183 -0.390922,-0.100837 -0.594725,-0.184051l0,-1.274891zm4.221287,1.397707l0,-5.725969l-0.662098,0l0,-0.898918l0.662098,0l0,-1.796995l1.215438,0l0,1.796995l0.913027,0l0,0.898918l-0.913027,0l0,5.725969l-1.215438,0zm5.701317,0l0,-0.648435c-0.165982,0.265483 -0.357459,0.46181 -0.5723,0.58329c-0.212168,0.124153 -0.45785,0.186229 -0.740015,0.186229c-0.556459,0 -0.979063,-0.290085 -1.267416,-0.870306c-0.287907,-0.582448 -0.433594,-1.439537 -0.433594,-2.573097c0,-1.127422 0.143954,-1.978373 0.430079,-2.556811c0.284393,-0.578488 0.70967,-0.868573 1.270931,-0.868573c0.286125,0 0.535767,0.060294 0.747935,0.182269c0.214396,0.122371 0.402803,0.313847 0.56438,0.574033l0,-0.633485l1.214547,0l0,6.624888l-1.214547,0zm-1.783778,-3.32232c0,0.846099 0.071284,1.443051 0.212614,1.788184c0.141776,0.349538 0.374636,0.522104 0.700413,0.522104c0.32444,0 0.557301,-0.176526 0.698185,-0.523441c0.142172,-0.350429 0.214396,-0.945599 0.214396,-1.786847c0,-0.847881 -0.072224,-1.440873 -0.210881,-1.783382c-0.138657,-0.338053 -0.375081,-0.508887 -0.7017,-0.508887c-0.330183,0 -0.56438,0.170834 -0.703927,0.508887c-0.139993,0.342509 -0.209099,0.935501 -0.209099,1.783382zm5.410786,0.018464c0,0.847881 0.06866,1.440428 0.209099,1.781154c0.138657,0.338499 0.373745,0.510669 0.703036,0.510669c0.327955,0 0.562152,-0.17217 0.702591,-0.510669c0.138657,-0.340727 0.210832,-0.933273 0.210832,-1.781154c0,-0.851396 -0.072175,-1.445229 -0.210832,-1.787293c-0.140439,-0.338994 -0.374636,-0.509333 -0.702591,-0.509333c-0.329292,0 -0.56438,0.170339 -0.703036,0.509333c-0.140439,0.342063 -0.209099,0.935897 -0.209099,1.787293zm1.783778,3.303855l0,-0.648435c-0.166873,0.265483 -0.357459,0.46181 -0.5723,0.58329c-0.212218,0.124153 -0.457404,0.186229 -0.739124,0.186229c-0.583339,0 -1.013863,-0.278205 -1.289445,-0.833327c-0.273799,-0.556459 -0.413347,-1.420181 -0.413347,-2.591611c0,-1.174054 0.139548,-2.040449 0.413347,-2.596413c0.275581,-0.554231 0.706106,-0.833773 1.289445,-0.833773c0.285234,0 0.533985,0.060294 0.747044,0.182665c0.214841,0.121529 0.403248,0.31256 0.56438,0.573637l0,-4.491176l1.214102,0l0,10.468916l-1.214102,0zm2.646609,-1.952829l0,-4.672058l1.214547,0l0,4.740323c0,0.305926 0.066928,0.537054 0.20207,0.69467c0.137815,0.158903 0.337657,0.238157 0.603091,0.238157c0.25974,0 0.458741,-0.079254 0.594774,-0.238157c0.135588,-0.157616 0.202515,-0.388744 0.202515,-0.69467l0,-4.740323l1.235239,0l0,4.672058c0,0.730807 -0.161577,1.257763 -0.481611,1.586163c-0.322213,0.32444 -0.838179,0.487749 -1.550917,0.487749c-0.712689,0 -1.227319,-0.163309 -1.542056,-0.487749c-0.317856,-0.3284 -0.477651,-0.855356 -0.477651,-1.586163zm8.283226,1.952829l0,-0.648435c-0.165982,0.265483 -0.357459,0.46181 -0.5723,0.58329c-0.212168,0.124153 -0.457404,0.186229 -0.739124,0.186229c-0.55735,0 -0.980845,-0.290085 -1.268752,-0.870306c-0.286571,-0.582448 -0.433148,-1.439537 -0.433148,-2.573097c0,-1.127422 0.143508,-1.978373 0.429188,-2.556811c0.286175,-0.578488 0.70967,-0.868573 1.272713,-0.868573c0.284393,0 0.534876,0.060294 0.747044,0.182269c0.21395,0.122371 0.403248,0.313847 0.56438,0.574033l0,-0.633485l1.214547,0l0,6.624888l-1.214547,0zm-1.783778,-3.32232c0,0.846099 0.070838,1.443051 0.211723,1.788184c0.142667,0.349538 0.374636,0.522104 0.701304,0.522104c0.32444,0 0.557301,-0.176526 0.698185,-0.523441c0.141726,-0.350429 0.214396,-0.945599 0.214396,-1.786847c0,-0.847881 -0.07267,-1.440873 -0.210881,-1.783382c-0.138657,-0.338053 -0.375527,-0.508887 -0.7017,-0.508887c-0.330183,0 -0.565271,0.170834 -0.703927,0.508887c-0.140884,0.342509 -0.209099,0.935501 -0.209099,1.783382zm4.472216,3.32232l0,-10.468916l1.214993,0l0,10.468916l-1.214993,0zm6.373513,-3.303855c0,0.847881 0.06871,1.440428 0.209149,1.781154c0.138657,0.338499 0.373745,0.510669 0.703878,0.510669c0.327113,0 0.56131,-0.17217 0.701749,-0.510669c0.138657,-0.340727 0.210832,-0.933273 0.210832,-1.781154c0,-0.851396 -0.072175,-1.445229 -0.210832,-1.787293c-0.140439,-0.338994 -0.374636,-0.509333 -0.701749,-0.509333c-0.330133,0 -0.565221,0.170339 -0.703878,0.509333c-0.140439,0.342063 -0.209149,0.935897 -0.209149,1.787293zm1.783778,3.303855l0,-0.648435c-0.165487,0.265483 -0.3583,0.46181 -0.57225,0.58329c-0.211772,0.124153 -0.458295,0.186229 -0.739173,0.186229c-0.58329,0 -1.013368,-0.278205 -1.289395,-0.833327c-0.273799,-0.556459 -0.41206,-1.420181 -0.41206,-2.591611c0,-1.174054 0.138261,-2.040449 0.41206,-2.596413c0.276027,-0.554231 0.706106,-0.833773 1.289395,-0.833773c0.285284,0 0.534876,0.060294 0.747094,0.182665c0.214841,0.121529 0.403248,0.31256 0.56433,0.573637l0,-4.491176l1.215042,0l0,10.468916l-1.215042,0zm3.471174,-4.039464l1.856002,0l0,-0.16816c0,-0.547202 -0.071779,-0.938124 -0.216624,-1.182865c-0.143508,-0.242117 -0.375032,-0.363646 -0.693779,-0.363646c-0.311223,0 -0.54542,0.144399 -0.704373,0.435821c-0.160686,0.289689 -0.241226,0.716699 -0.241226,1.278851zm2.965356,1.82338l0,0.087174c0,0.699522 -0.174794,1.247615 -0.527847,1.64819c-0.349984,0.40107 -0.830258,0.601804 -1.438646,0.601804c-0.742638,0 -1.286326,-0.275581 -1.628389,-0.827189c-0.344687,-0.551162 -0.517699,-1.43424 -0.517699,-2.64354c0,-1.139749 0.173012,-1.991986 0.517699,-2.554138c0.342063,-0.563043 0.862831,-0.843921 1.561016,-0.843921c0.743134,0 1.280633,0.254889 1.607697,0.766845c0.329292,0.509778 0.493937,1.347115 0.493937,2.507952l0,0.386071l-3.033125,0l0,0.19504c0,0.69467 0.079254,1.195637 0.235979,1.509979c0.159794,0.312956 0.408496,0.471018 0.748381,0.471018c0.275581,0 0.48468,-0.108757 0.625515,-0.325777c0.141776,-0.216574 0.218802,-0.539282 0.233355,-0.971984l1.122126,-0.007524zm3.632701,2.216084l0.844812,-9.859637l1.203557,0l1.336522,6.826958l1.369094,-6.826958l1.160391,0l0.859316,9.859637l-1.229546,0l-0.398843,-6.91631l-1.31578,6.91631l-0.899413,0l-1.315829,-6.91631l-0.398397,6.91631l-1.215884,0zm8.893395,-3.336873c0,0.812635 0.080541,1.405182 0.239444,1.779818c0.161131,0.376418 0.412951,0.564825 0.754569,0.564825c0.348647,0 0.603091,-0.188407 0.766845,-0.566558c0.164646,-0.378596 0.246523,-0.970697 0.246523,-1.778085c0,-0.800755 -0.081877,-1.391073 -0.246523,-1.76967c-0.163755,-0.378151 -0.418198,-0.567003 -0.766845,-0.567003c-0.341618,0 -0.593438,0.188853 -0.754569,0.565221c-0.158903,0.375972 -0.239444,0.9654 -0.239444,1.771452zm-1.235734,0.014554c0,-1.117324 0.19108,-1.968274 0.5723,-2.552009c0.380774,-0.58329 0.931095,-0.873375 1.657447,-0.873375c0.725907,0 1.276178,0.290085 1.657002,0.873375c0.379883,0.583735 0.570963,1.434685 0.570963,2.552009c0,1.125195 -0.19108,1.979214 -0.570963,2.566018c-0.380824,0.585517 -0.931095,0.877385 -1.657002,0.877385c-0.726352,0 -1.276673,-0.291868 -1.657447,-0.877385c-0.38122,-0.586804 -0.5723,-1.440824 -0.5723,-2.566018zm5.64632,3.32232l0,-6.624888l1.200934,0l0,0.65987c0.161527,-0.241226 0.359191,-0.423495 0.592497,-0.54542c0.231128,-0.122371 0.49968,-0.182269 0.805655,-0.182269c0.487749,0 0.850059,0.136033 1.084702,0.405922c0.237266,0.269393 0.354785,0.68279 0.354785,1.235239l0,5.051546l-1.221576,0l0,-4.449742c0,-0.449484 -0.058116,-0.755856 -0.17613,-0.920501c-0.116183,-0.16024 -0.318252,-0.241672 -0.606605,-0.241672c-0.271175,0 -0.47676,0.085838 -0.612793,0.253998c-0.137815,0.167269 -0.206475,0.41998 -0.206475,0.751895l0,4.606022l-1.214993,0zm5.585976,0l0,-5.725969l-0.661207,0l0,-0.898918l0.661207,0l0,-1.796995l1.215438,0l0,1.796995l0.913027,0l0,0.898918l-0.913027,0l0,5.725969l-1.215438,0zm3.762596,-4.039464l1.855062,0l0,-0.16816c0,-0.547202 -0.070838,-0.938124 -0.215683,-1.182865c-0.143508,-0.242117 -0.376418,-0.363646 -0.694225,-0.363646c-0.311669,0 -0.545866,0.144399 -0.704818,0.435821c-0.16024,0.289689 -0.240335,0.716699 -0.240335,1.278851zm2.965307,1.82338l0,0.087174c0,0.699522 -0.176081,1.247615 -0.529134,1.64819c-0.349984,0.40107 -0.828922,0.601804 -1.4382,0.601804c-0.741797,0 -1.286326,-0.275581 -1.62928,-0.827189c-0.34335,-0.551162 -0.516807,-1.43424 -0.516807,-2.64354c0,-1.139749 0.173457,-1.991986 0.516807,-2.554138c0.342954,-0.563043 0.862831,-0.843921 1.561907,-0.843921c0.743975,0 1.279742,0.254889 1.606806,0.766845c0.330183,0.509778 0.493937,1.347115 0.493937,2.507952l0,0.386071l-3.031343,0l0,0.19504c0,0.69467 0.078363,1.195637 0.235484,1.509979c0.158507,0.312956 0.4081,0.471018 0.748381,0.471018c0.275136,0 0.485126,-0.108757 0.625565,-0.325777c0.142221,-0.216574 0.218356,-0.539282 0.23286,-0.971984l1.123017,-0.007524zm0.864167,0.818378c0.170834,0.148359 0.341172,0.260186 0.509333,0.334588c0.16816,0.073066 0.340727,0.111381 0.516411,0.111381c0.254889,0 0.46483,-0.076185 0.629079,-0.232464c0.161527,-0.150092 0.241672,-0.346419 0.241672,-0.586804c0,-0.284393 -0.223207,-0.635218 -0.668286,-1.060495c-0.05678,-0.057225 -0.103461,-0.098164 -0.132915,-0.127222c-0.434534,-0.409832 -0.724174,-0.748381 -0.872088,-1.019556c-0.149696,-0.271175 -0.223207,-0.567894 -0.223207,-0.891443c0,-0.560419 0.170834,-1.013814 0.513738,-1.364243c0.341172,-0.353053 0.785805,-0.528292 1.329938,-0.528292c0.180041,0 0.3583,0.023811 0.529134,0.066928c0.174299,0.046681 0.34731,0.11445 0.517699,0.202515l0,1.249793c-0.131182,-0.151429 -0.275136,-0.265483 -0.428346,-0.336321c-0.154498,-0.071333 -0.335875,-0.108757 -0.537054,-0.108757c-0.226722,0 -0.411169,0.07262 -0.558637,0.21702c-0.144845,0.142667 -0.218802,0.325331 -0.218802,0.547202c0,0.291868 0.214396,0.63304 0.640069,1.024853c0.084996,0.079699 0.150141,0.136479 0.190635,0.177417c0.40013,0.37023 0.680117,0.701254 0.833327,0.997973c0.153656,0.297164 0.23286,0.629079 0.23286,0.994013c0,0.562152 -0.17123,1.010745 -0.514134,1.348848c-0.339885,0.333697 -0.796844,0.501858 -1.369094,0.501858c-0.184051,0 -0.372903,-0.021583 -0.566607,-0.059849c-0.1941,-0.04183 -0.391764,-0.100837 -0.594725,-0.184051l0,-1.274891zm11.022306,1.175836c-0.222316,0.114896 -0.443742,0.203406 -0.668731,0.258849c-0.226673,0.057275 -0.46483,0.084105 -0.717541,0.084105c-1.007676,0 -1.761749,-0.412951 -2.26232,-1.234843c-0.49963,-0.825852 -0.747935,-2.069012 -0.747935,-3.72735c0,-1.695317 0.266374,-2.976791 0.799022,-3.845364c0.534876,-0.868969 1.32375,-1.302612 2.367067,-1.302612c0.229346,0 0.445969,0.02292 0.647989,0.066928c0.202515,0.046681 0.396219,0.111826 0.582448,0.196773l0,1.263456c-0.189298,-0.095095 -0.371121,-0.164646 -0.545024,-0.210881c-0.173408,-0.043562 -0.336766,-0.066037 -0.488195,-0.066037c-0.707888,0 -1.222468,0.308599 -1.546957,0.928422c-0.325727,0.61809 -0.487304,1.604182 -0.487304,2.955208c0,1.258604 0.155834,2.192769 0.463543,2.798087c0.306421,0.605714 0.784468,0.908175 1.426765,0.908175c0.184892,0 0.373299,-0.029504 0.56131,-0.091134c0.188407,-0.061185 0.393546,-0.153211 0.615862,-0.279987l0,1.298207zm1.07985,0.221871l0,-10.468916l1.215042,0l0,10.468916l-1.215042,0zm5.490881,0l0,-0.648435c-0.167269,0.265483 -0.358746,0.46181 -0.57225,0.58329c-0.211772,0.124153 -0.45785,0.186229 -0.739173,0.186229c-0.557746,0 -0.980796,-0.290085 -1.268703,-0.870306c-0.287016,-0.582448 -0.433198,-1.439537 -0.433198,-2.573097c0,-1.127422 0.142667,-1.978373 0.429237,-2.556811c0.285729,-0.578488 0.70962,-0.868573 1.272663,-0.868573c0.284838,0 0.53443,0.060294 0.746648,0.182269c0.214841,0.122371 0.403248,0.313847 0.564776,0.574033l0,-0.633485l1.214597,0l0,6.624888l-1.214597,0zm-1.783778,-3.32232c0,0.846099 0.071333,1.443051 0.212218,1.788184c0.141726,0.349538 0.374636,0.522104 0.700363,0.522104c0.324886,0 0.557796,-0.176526 0.698631,-0.523441c0.141776,-0.350429 0.21395,-0.945599 0.21395,-1.786847c0,-0.847881 -0.072175,-1.440873 -0.20999,-1.783382c-0.140389,-0.338053 -0.375477,-0.508887 -0.702591,-0.508887c-0.329292,0 -0.565221,0.170834 -0.703036,0.508887c-0.141281,0.342509 -0.209545,0.935501 -0.209545,1.783382zm4.47182,3.32232l0,-6.624888l1.172717,0l0,0.964955c0.169051,-0.350429 0.380824,-0.614971 0.644079,-0.79328c0.259691,-0.179596 0.580171,-0.277314 0.958321,-0.294491l0,1.283257l-0.20202,0c-0.473691,0 -0.821051,0.117965 -1.039407,0.356122c-0.223158,0.235088 -0.333202,0.605764 -0.333202,1.1098l0,3.998526l-1.200488,0zm4.619685,-3.336873c0,0.812635 0.080541,1.405182 0.238603,1.779818c0.161973,0.376418 0.412901,0.564825 0.754074,0.564825c0.349093,0 0.603536,-0.188407 0.768182,-0.566558c0.163804,-0.378596 0.246523,-0.970697 0.246523,-1.778085c0,-0.800755 -0.082719,-1.391073 -0.246523,-1.76967c-0.164646,-0.378151 -0.419089,-0.567003 -0.768182,-0.567003c-0.341172,0 -0.592101,0.188853 -0.754074,0.565221c-0.158062,0.375972 -0.238603,0.9654 -0.238603,1.771452zm-1.23618,0.014554c0,-1.117324 0.191526,-1.968274 0.571013,-2.552009c0.381665,-0.58329 0.932382,-0.873375 1.657843,-0.873375c0.726402,0 1.27796,0.290085 1.657447,0.873375c0.379933,0.583735 0.570963,1.434685 0.570963,2.552009c0,1.125195 -0.191031,1.979214 -0.570963,2.566018c-0.379487,0.585517 -0.931046,0.877385 -1.657447,0.877385c-0.725461,0 -1.276178,-0.291868 -1.657843,-0.877385c-0.379487,-0.586804 -0.571013,-1.440824 -0.571013,-2.566018zm5.268615,1.924613c0.170339,0.148359 0.341172,0.260186 0.508887,0.334588c0.16816,0.073066 0.341618,0.111381 0.51552,0.111381c0.256622,0 0.465721,-0.076185 0.630367,-0.232464c0.161131,-0.150092 0.241721,-0.346419 0.241721,-0.586804c0,-0.284393 -0.223653,-0.635218 -0.66784,-1.060495c-0.057671,-0.057225 -0.103461,-0.098164 -0.133806,-0.127222c-0.434089,-0.409832 -0.724174,-0.748381 -0.871642,-1.019556c-0.150141,-0.271175 -0.223207,-0.567894 -0.223207,-0.891443c0,-0.560419 0.170339,-1.013814 0.513293,-1.364243c0.341618,-0.353053 0.785805,-0.528292 1.329492,-0.528292c0.179596,0 0.358746,0.023811 0.53047,0.066928c0.173853,0.046681 0.346419,0.11445 0.516807,0.202515l0,1.249793c-0.131182,-0.151429 -0.275136,-0.265483 -0.428346,-0.336321c-0.154102,-0.071333 -0.334984,-0.108757 -0.537054,-0.108757c-0.226722,0 -0.411169,0.07262 -0.558241,0.21702c-0.144795,0.142667 -0.218307,0.325331 -0.218307,0.547202c0,0.291868 0.214346,0.63304 0.640069,1.024853c0.085392,0.079699 0.14925,0.136479 0.189744,0.177417c0.401021,0.37023 0.680117,0.701254 0.833773,0.997973c0.154052,0.297164 0.232415,0.629079 0.232415,0.994013c0,0.562152 -0.170339,1.010745 -0.514184,1.348848c-0.339836,0.333697 -0.796794,0.501858 -1.369094,0.501858c-0.184001,0 -0.372408,-0.021583 -0.566558,-0.059849c-0.194149,-0.04183 -0.391764,-0.100837 -0.594279,-0.184051l0,-1.274891zm-133.287075,-89.119094l16.396113,-9.466091l16.392104,-9.463022l0,0l0,0l9.231053,5.330196l9.231894,5.330691l9.231003,-5.330691l9.230162,-5.331533l0,0l0,0l16.390817,9.464359l16.394331,9.466091c5.329305,3.074509 8.912305,8.053435 10.400256,13.595848c1.414884,5.280495 0.920947,11.076016 -1.791302,16.222656c-0.268057,0.509778 -0.55641,1.004557 -0.866346,1.495425c-3.098271,4.919473 -7.870275,8.24803 -13.149434,9.664646c-5.545037,1.481812 -11.649603,0.862831 -16.977621,-2.216084l-14.430067,-8.325056l-14.431799,-8.336045l-14.43269,8.333867l-14.42873,8.32857c-5.332869,3.077579 -11.435257,3.69656 -16.982027,2.214748c-5.315692,-1.428943 -10.121605,-4.794478 -13.211114,-9.7738c-0.277759,-0.433643 -0.531312,-0.876494 -0.772142,-1.333007c-2.741258,-5.156788 -3.247076,-10.980476 -1.824271,-16.273693c1.487505,-5.544641 5.071792,-10.523567 10.39981,-13.598076zm32.636788,-9.963098l-14.39794,8.314908l-14.394821,8.307433c-3.498896,2.014906 -5.85626,5.285792 -6.830076,8.925968c-0.897136,3.35316 -0.624228,7.024176 1.005943,10.317487c0.238603,0.481166 0.498343,0.939906 0.790211,1.395083c2.034261,3.184999 5.14268,5.342077 8.584301,6.266142c3.632751,0.973321 7.643157,0.571409 11.145122,-1.456714l25.657511,-14.811287l25.664095,-14.819207l0,0l-0.000891,-0.004851l0.000891,0.004851l0,0l0,0l0,0l0.04183,0.021138l0.037374,0.027721l11.695393,6.74904l11.692324,6.753892c0.937233,0.537104 1.560174,1.406964 1.819024,2.379839c0.262364,0.967182 0.153161,2.039112 -0.383893,2.969316l0,0l0,0.000891c-0.537945,0.934164 -1.411766,1.557947 -2.378502,1.818974c-0.967182,0.263255 -2.044409,0.155438 -2.974168,-0.382556l-9.848202,-5.688545l-9.849984,-5.686318l-5.386134,3.113666l-5.388312,3.109755l12.511543,7.222286l12.511147,7.221395c3.503747,2.028123 7.512816,2.430035 11.146854,1.456714c3.354942,-0.898968 6.392918,-2.9759 8.432922,-6.037688c0.329737,-0.492601 0.629525,-1.008963 0.893671,-1.540324c1.667991,-3.311776 1.957631,-7.01977 1.050347,-10.400701c-0.971984,-3.640176 -3.324547,-6.911062 -6.826512,-8.925968l-14.400563,-8.307433l-14.396158,-8.314908l-28.386888,16.385965l-28.38377,16.392104c-0.933273,0.538836 -2.006094,0.647148 -2.972831,0.382556c-0.969361,-0.261027 -1.841448,-0.889216 -2.386027,-1.818974l0,0l0,0c-0.531312,-0.931937 -0.644029,-2.003025 -0.382556,-2.970207c0.258404,-0.972875 0.882236,-1.842735 1.820756,-2.379839l17.121178,-9.886072l17.114941,-9.887408l-5.383015,-3.108815l-5.386134,-3.10931zm-66.459512,87.160126l170.142478,0l0,0.817486l-170.142478,0l0,-0.817486zm24.883142,-6.499003l0,-15.104936l7.11838,0l0,2.089754c0.631307,-0.868128 1.335185,-1.515276 2.103367,-1.940058c0.767786,-0.423495 1.635022,-0.633485 2.59775,-0.633485c1.609925,0 2.881697,0.489086 3.819376,1.46107c0.94253,0.973766 1.41137,2.304595 1.41137,3.989764l0,10.137892l-7.336736,0l0,-7.624247c0,-0.751895 -0.078363,-1.266525 -0.232464,-1.552205c-0.155389,-0.283056 -0.430524,-0.423495 -0.817486,-0.423495c-0.424782,0 -0.754074,0.165537 -0.977726,0.49963c-0.22494,0.329292 -0.333697,0.821892 -0.333697,1.476069l0,7.624247l-7.352131,0zm27.875774,-19.806944c0,1.082029 -0.354389,1.939612 -1.065346,2.578394c-0.709224,0.638287 -1.67111,0.95748 -2.877737,0.95748c-1.218111,0 -2.189254,-0.319193 -2.906795,-0.963222c-0.725065,-0.643633 -1.083811,-1.500722 -1.083811,-2.572652c0,-1.072821 0.353944,-1.91496 1.069257,-2.533941c0.706997,-0.617644 1.683436,-0.927085 2.921348,-0.927085c1.226032,0 2.188759,0.309441 2.892686,0.927085c0.7017,0.618981 1.050396,1.46112 1.050396,2.533941zm-7.623801,19.806944l0,-15.104936l7.335449,0l0,15.104936l-7.335449,0zm10.646779,0l0,-15.104936l7.00086,0l0,2.119208c0.574082,-0.897582 1.206676,-1.555274 1.893426,-1.975254c0.695116,-0.417753 1.488841,-0.627743 2.386423,-0.627743c1.055644,0 1.938325,0.258849 2.6475,0.772142c0.702145,0.519877 1.276227,1.32771 1.715563,2.429589c0.573141,-1.051683 1.275336,-1.850705 2.108664,-2.388205c0.832882,-0.544578 1.765264,-0.813526 2.798037,-0.813526c1.481812,0 2.662895,0.489086 3.546022,1.466812c0.881741,0.982132 1.321522,2.298853 1.321522,3.954072l0,10.167841l-7.086698,0l0,-7.592961c0,-0.775261 -0.069551,-1.29385 -0.20999,-1.567649c-0.143063,-0.273799 -0.383002,-0.407654 -0.728134,-0.407654c-0.388249,0 -0.677493,0.158903 -0.867237,0.483344c-0.189744,0.319193 -0.284838,0.817536 -0.284838,1.49196l0,7.592961l-6.981455,0l0,-7.592961c0,-0.755014 -0.06866,-1.26697 -0.208654,-1.553145c-0.14529,-0.283502 -0.388299,-0.422158 -0.738282,-0.422158c-0.399288,0 -0.692047,0.158903 -0.883077,0.483344c-0.187516,0.319193 -0.283502,0.817536 -0.283502,1.49196l0,7.592961l-7.146151,0zm36.657788,-5.449101c0.526956,0 0.957925,-0.190635 1.286326,-0.569181c0.334588,-0.379042 0.497452,-0.878276 0.497452,-1.490623c0,-0.625119 -0.162864,-1.123017 -0.486017,-1.495425c-0.329737,-0.375527 -0.759816,-0.563934 -1.297761,-0.563934c-0.544133,0 -0.978618,0.188407 -1.306572,0.563934c-0.324886,0.372408 -0.48864,0.870306 -0.48864,1.495425c0,0.623337 0.163755,1.120789 0.48864,1.496316c0.327955,0.372854 0.76244,0.563488 1.306572,0.563488zm8.826913,-2.059805c0,1.136679 -0.245236,2.223114 -0.729025,3.254996c-0.487749,1.033219 -1.185935,1.944018 -2.088417,2.732941c-0.794171,0.683186 -1.696158,1.203112 -2.713536,1.556165c-1.017329,0.353498 -2.11396,0.532648 -3.295935,0.532648c-1.177618,0 -2.273309,-0.173853 -3.285836,-0.522946c-1.013814,-0.354389 -1.920653,-0.872533 -2.732892,-1.565867c-0.894067,-0.757638 -1.587005,-1.659675 -2.080497,-2.707843c-0.493937,-1.046832 -0.736946,-2.143414 -0.736946,-3.280094c0,-1.146778 0.243008,-2.244697 0.736946,-3.283163c0.493492,-1.036288 1.18643,-1.939216 2.080497,-2.706952c0.812239,-0.693334 1.719078,-1.211478 2.732892,-1.566313c1.012527,-0.348647 2.108218,-0.523391 3.285836,-0.523391c1.181974,0 2.278606,0.17915 3.295935,0.533094c1.017378,0.354389 1.929959,0.874266 2.738189,1.55661c0.887038,0.757638 1.576015,1.660071 2.063765,2.702547c0.483789,1.042872 0.729025,2.140791 0.729025,3.287569zm2.477112,7.508906l0,-15.104936l7.116647,0l0,2.089754c0.633485,-0.868128 1.335185,-1.515276 2.103812,-1.940058c0.768182,-0.423495 1.635864,-0.633485 2.599532,-0.633485c1.610321,0 2.881697,0.489086 3.819376,1.46107c0.941639,0.973766 1.410479,2.304595 1.410479,3.989764l0,10.137892l-7.334558,0l0,-7.624247c0,-0.751895 -0.08059,-1.266525 -0.234642,-1.552205c-0.154943,-0.283056 -0.429237,-0.423495 -0.817932,-0.423495c-0.425277,0 -0.753678,0.165537 -0.978172,0.49963c-0.222762,0.329292 -0.333252,0.821892 -0.333252,1.476069l0,7.624247l-7.351289,0zm21.084458,0l0,-9.540098l-2.089308,0l0,-5.564838l2.089308,0l0,-4.995657l7.336736,0l0,4.995657l2.088021,0l0,5.564838l-2.088021,0l0,9.540098l-7.336736,0zm28.519853,-6.353316l-10.417878,0.015395l0,0.235534c0,0.766449 0.140439,1.335185 0.418644,1.70893c0.27469,0.375527 0.699076,0.563934 1.262565,0.563934c0.338499,0 0.637,-0.0995 0.891443,-0.299342c0.254889,-0.198555 0.455177,-0.489532 0.59913,-0.868573l6.791316,0.455177c-0.593438,1.635022 -1.615172,2.896251 -3.066144,3.779328c-1.452308,0.887929 -3.230344,1.330779 -5.335047,1.330779c-1.167025,0 -2.260092,-0.17915 -3.27747,-0.532648c-1.017329,-0.353053 -1.930355,-0.872979 -2.743485,-1.556165c-0.901987,-0.788923 -1.599331,-1.699722 -2.088417,-2.732941c-0.48468,-1.031882 -0.728085,-2.118317 -0.728085,-3.254996c0,-1.146778 0.243404,-2.244697 0.737787,-3.283163c0.493937,-1.036288 1.186826,-1.939216 2.078715,-2.706952c0.81313,-0.693334 1.721306,-1.211478 2.733387,-1.566313c1.015547,-0.348647 2.10906,-0.523391 3.291084,-0.523391c1.616508,0 3.06748,0.323549 4.353806,0.972875c1.286771,0.647148 2.35385,1.591411 3.211879,2.827095c0.438445,0.633485 0.768627,1.332561 0.986934,2.094159c0.220138,0.769073 0.328846,1.600222 0.328846,2.508397c0,0.234642 0,0.408496 -0.004356,0.525173c-0.004851,0.11841 -0.014999,0.218356 -0.024652,0.307708zm-10.35803,-3.285391l3.316181,0.013663c-0.029454,-0.592547 -0.17915,-1.030991 -0.442851,-1.314938c-0.269839,-0.283502 -0.669573,-0.425723 -1.192122,-0.425723c-0.46973,0 -0.848723,0.151429 -1.131779,0.445078c-0.289689,0.298897 -0.474582,0.727689 -0.54943,1.28192zm11.07161,8.556183l1.943572,-4.66196c0.809566,0.542796 1.545621,0.957925 2.220045,1.242318c0.673087,0.283502 1.246278,0.423049 1.724375,0.423049c0.38914,0 0.684522,-0.074848 0.890107,-0.223653c0.203406,-0.155389 0.306817,-0.364488 0.306817,-0.638732c0,-0.378596 -0.434039,-0.659029 -1.299939,-0.832486c-0.289689,-0.054601 -0.519035,-0.104748 -0.684572,-0.144399c-1.425428,-0.349538 -2.457311,-0.868128 -3.105746,-1.556165c-0.648039,-0.688087 -0.972925,-1.596262 -0.972925,-2.723684c0,-1.585223 0.65992,-2.882538 1.9806,-3.884076c1.320186,-1.002824 3.041046,-1.506415 5.164214,-1.506415c1.063614,0 2.075645,0.099896 3.048125,0.298451c0.968469,0.199842 1.874467,0.499234 2.722793,0.898077l-1.796154,4.542609c-0.682344,-0.452108 -1.295137,-0.79724 -1.839221,-1.026586c-0.548093,-0.229346 -1.017378,-0.343796 -1.415775,-0.343796c-0.333697,0 -0.600467,0.068215 -0.804715,0.20999c-0.202515,0.144399 -0.306817,0.329292 -0.306817,0.563043c0,0.379042 0.57225,0.693334 1.724771,0.937679c0.268997,0.055443 0.48468,0.104302 0.638336,0.145241c1.470773,0.348697 2.553296,0.861544 3.245739,1.539482c0.693383,0.680117 1.037625,1.560125 1.037625,2.653638c0,1.695762 -0.68279,3.070995 -2.043964,4.139014c-1.366471,1.067079 -3.166089,1.599727 -5.40638,1.599727c-1.22118,0 -2.413303,-0.138657 -3.580773,-0.418644c-1.17143,-0.273799 -2.30014,-0.688037 -3.390138,-1.231724z" class="fil0"></path></g></g></svg> 