<?xml version="1.0" encoding="UTF-8"?>
<!-- Generator: Adobe Illustrator 19.0.0, SVG Export Plug-In . SVG Version: 6.00 Build 0) -->
<svg width="180" height="84" version="1.1" viewBox="209 -49 180 84" xml:space="preserve" xmlns="http://www.w3.org/2000/svg"><defs><clipPath id="clipPath645"><rect x="222.97" y="-20.265" width="153.16" height="72.759" fill="#00f" fill-rule="evenodd"/></clipPath></defs> <style type="text/css"> .st0{fill:none;} .st1{fill:#29166F;} </style>  <rect id="canvas_background" class="st0" x="208" y="-50" width="452" height="132"/>  <g transform="matrix(1.1676 0 0 1.1676 -50.852 -25.639)" clip-path="url(#clipPath645)"> <title stroke="null">Layer 1</title>   <path class="st1" d="m236.8 2.6 40-22.2 22.6 12.6 22.6-12.6 40 22.2c6.5 3.6 10.9 9.4 12.7 15.9 1.7 6.2 1.1 13-2.2 19-0.3 0.6-0.7 1.2-1.1 1.8-3.8 5.8-9.6 9.7-16.1 11.3-6.8 1.7-14.2 1-20.7-2.6l-17.6-9.7-17.6-9.8-35.2 19.6c-6.5 3.6-14 4.3-20.7 2.6-6.5-1.7-12.4-5.6-16.1-11.5-0.3-0.5-0.6-1-0.9-1.6-3.3-6-4-12.9-2.2-19.1 1.6-6.4 6-12.3 12.5-15.9zm39.9-11.7-17.6 9.8-17.6 9.7c-4.3 2.4-7.2 6.2-8.3 10.5-1.1 3.9-0.8 8.2 1.2 12.1 0.3 0.6 0.6 1.1 1 1.6 2.5 3.7 6.3 6.3 10.5 7.3 4.4 1.1 9.3 0.7 13.6-1.7l31.3-17.4 31.4-17.4 28.6 15.8c1.1 0.6 1.9 1.7 2.2 2.8s0.2 2.4-0.5 3.5-1.7 1.8-2.9 2.1-2.5 0.2-3.6-0.4l-12-6.7-12-6.5-6.6 3.7-6.6 3.6 30.6 17c4.3 2.4 9.2 2.9 13.6 1.7 4.1-1.1 7.8-3.5 10.3-7.1 0.4-0.6 0.8-1.2 1.1-1.8 2-3.9 2.4-8.2 1.3-12.2-1.2-4.3-4.1-8.1-8.3-10.5l-17.6-9.7-17.6-9.8-69.4 38.4c-1.1 0.6-2.5 0.8-3.6 0.4-1.2-0.3-2.3-1-2.9-2.1s-0.8-2.4-0.5-3.5 1.1-2.2 2.2-2.8l41.8-23.2-6.6-3.6z"/> <path class="st1" d="m389.4 3.7v-17.6h11.7v17.7c0 2.1 0.2 3.5 0.7 4.2 0.5 0.8 1.3 1.2 2.5 1.2s2-0.4 2.5-1.2 0.8-2.2 0.8-4.2v-17.6h11.7v17.5c0 2.3-0.2 4.2-0.5 5.7s-0.8 2.7-1.5 3.7c-1.3 2-3.1 3.6-5.3 4.6-2.2 1.1-4.8 1.6-7.7 1.6s-5.5-0.5-7.7-1.6-4-2.6-5.3-4.6c-0.7-1-1.1-2.2-1.4-3.7s-0.5-3.4-0.5-5.7zm-1.3 40.9v-11h2v11.1c0 0.7 0.2 1.2 0.5 1.6 0.3 0.3 0.8 0.5 1.5 0.5s1.2-0.2 1.5-0.5 0.5-0.9 0.5-1.6v-11.1h2v11c0 1.4-0.3 2.5-0.9 3.2s-1.6 1-3 1-2.4-0.3-3-1c-0.8-0.7-1.1-1.8-1.1-3.2zm10.2 3.9v-10h1.8v1c0.2-0.4 0.5-0.6 0.9-0.8s0.8-0.3 1.2-0.3c0.7 0 1.3 0.2 1.6 0.6 0.4 0.4 0.5 1 0.5 1.9v7.6h-1.9v-6.7c0-0.7-0.1-1.1-0.3-1.4-0.2-0.2-0.5-0.4-0.9-0.4s-0.7 0.1-0.9 0.4-0.3 0.6-0.3 1.1v7h-1.7zm8.2-13c0-0.3 0.1-0.6 0.3-0.8s0.5-0.3 0.8-0.3 0.6 0.1 0.8 0.3 0.3 0.5 0.3 0.8-0.1 0.6-0.3 0.8-0.5 0.3-0.8 0.3-0.6-0.1-0.8-0.3-0.3-0.5-0.3-0.8zm0.2 13v-10h1.8v10zm3.2-10h1.9l1 5.2c0.1 0.3 0.1 0.7 0.2 1 0 0.4 0.1 0.8 0.1 1.3 0.1-0.6 0.1-1 0.2-1.4s0.1-0.7 0.2-0.9l1-5.3h1.9l-2.5 10h-1.5zm9.1 3.9h2.8v-0.3c0-0.8-0.1-1.4-0.3-1.8s-0.6-0.6-1.1-0.6-0.8 0.2-1.1 0.7c-0.2 0.5-0.3 1.2-0.3 2zm4.5 2.8v0.1c0 1.1-0.3 1.9-0.8 2.5s-1.3 0.9-2.2 0.9c-1.1 0-2-0.4-2.5-1.3-0.5-0.8-0.8-2.2-0.8-4 0-1.7 0.3-3 0.8-3.9s1.3-1.3 2.4-1.3 1.9 0.4 2.4 1.2 0.7 2 0.7 3.8v0.6h-4.5v0.3c0 1.1 0.1 1.8 0.4 2.3 0.2 0.5 0.6 0.7 1.1 0.7 0.4 0 0.7-0.2 0.9-0.5s0.3-0.8 0.4-1.5zm1.9 3.3v-10h1.8v1.5c0.3-0.5 0.6-0.9 1-1.2s0.9-0.4 1.5-0.4v1.9h-0.3c-0.7 0-1.2 0.2-1.6 0.5-0.3 0.4-0.5 0.9-0.5 1.7v6.1zm5.1-2.1c0.3 0.2 0.5 0.4 0.8 0.5s0.5 0.2 0.8 0.2c0.4 0 0.7-0.1 1-0.4 0.2-0.2 0.4-0.5 0.4-0.9s-0.3-1-1-1.6c-0.1-0.1-0.2-0.1-0.2-0.2-0.7-0.6-1.1-1.1-1.3-1.5s-0.3-0.9-0.3-1.3c0-0.8 0.3-1.5 0.8-2.1 0.5-0.5 1.2-0.8 2-0.8 0.3 0 0.5 0 0.8 0.1s0.5 0.2 0.8 0.3v1.9c-0.2-0.2-0.4-0.4-0.7-0.5-0.2-0.1-0.5-0.2-0.8-0.2s-0.6 0.1-0.8 0.3-0.3 0.5-0.3 0.8c0 0.4 0.3 1 1 1.6l0.3 0.3c0.6 0.6 1 1.1 1.3 1.5 0.2 0.4 0.4 1 0.4 1.5 0 0.9-0.3 1.5-0.8 2s-1.2 0.8-2.1 0.8c-0.3 0-0.6 0-0.9-0.1s-0.6-0.2-0.9-0.3v-1.9zm6.1-10.9c0-0.3 0.1-0.6 0.3-0.8s0.5-0.3 0.8-0.3 0.6 0.1 0.8 0.3 0.3 0.5 0.3 0.8-0.1 0.6-0.3 0.8-0.5 0.3-0.8 0.3-0.6-0.1-0.8-0.3-0.3-0.5-0.3-0.8zm0.2 13v-10h1.8v10zm5.6-5c0 1.3 0.1 2.2 0.3 2.7s0.6 0.8 1.1 0.8 0.9-0.3 1.1-0.8 0.3-1.4 0.3-2.7-0.1-2.2-0.3-2.7-0.6-0.8-1.1-0.8-0.9 0.3-1.1 0.8-0.3 1.4-0.3 2.7zm2.7 5v-1c-0.3 0.4-0.5 0.7-0.9 0.9-0.3 0.2-0.7 0.3-1.1 0.3-0.9 0-1.5-0.4-2-1.3-0.4-0.8-0.6-2.2-0.6-3.9 0-1.8 0.2-3.1 0.6-3.9s1.1-1.3 2-1.3c0.4 0 0.8 0.1 1.1 0.3s0.6 0.5 0.9 0.9v-6.8h1.8v15.9h-1.8zm8.2 0v-1c-0.3 0.4-0.5 0.7-0.9 0.9-0.3 0.2-0.7 0.3-1.1 0.3-0.8 0-1.5-0.4-1.9-1.3s-0.7-2.2-0.7-3.9 0.2-3 0.6-3.9 1.1-1.3 1.9-1.3c0.4 0 0.8 0.1 1.1 0.3s0.6 0.5 0.9 0.9v-1h1.8v10zm-2.7-5c0 1.3 0.1 2.2 0.3 2.7s0.6 0.8 1.1 0.8 0.8-0.3 1.1-0.8c0.2-0.5 0.3-1.4 0.3-2.7s-0.1-2.2-0.3-2.7-0.6-0.8-1.1-0.8-0.9 0.3-1.1 0.8-0.3 1.4-0.3 2.7zm8.2 0c0 1.3 0.1 2.2 0.3 2.7s0.6 0.8 1.1 0.8 0.9-0.3 1.1-0.8 0.3-1.4 0.3-2.7-0.1-2.2-0.3-2.7-0.6-0.8-1.1-0.8-0.9 0.3-1.1 0.8-0.3 1.4-0.3 2.7zm2.7 5v-1c-0.3 0.4-0.5 0.7-0.9 0.9-0.3 0.2-0.7 0.3-1.1 0.3-0.9 0-1.5-0.4-2-1.3-0.4-0.8-0.6-2.2-0.6-3.9 0-1.8 0.2-3.1 0.6-3.9s1.1-1.3 2-1.3c0.4 0 0.8 0.1 1.1 0.3s0.6 0.5 0.9 0.9v-6.8h1.8v15.9h-1.8zm5.3-6.1h2.8v-0.3c0-0.8-0.1-1.4-0.3-1.8s-0.6-0.6-1.1-0.6-0.8 0.2-1.1 0.7c-0.2 0.5-0.3 1.2-0.3 2zm4.5 2.8v0.1c0 1.1-0.3 1.9-0.8 2.5s-1.3 0.9-2.2 0.9c-1.1 0-2-0.4-2.5-1.3-0.5-0.8-0.8-2.2-0.8-4 0-1.7 0.3-3 0.8-3.9s1.3-1.3 2.4-1.3 1.9 0.4 2.4 1.2 0.8 2 0.8 3.8v0.6h-4.6v0.3c0 1.1 0.1 1.8 0.4 2.3 0.2 0.5 0.6 0.7 1.1 0.7 0.4 0 0.7-0.2 0.9-0.5s0.3-0.8 0.4-1.5zm6 3.3v-14.9h6v1.8h-4v4.4h3.6v1.8h-3.6v5.1h4v1.9c0-0.1-6-0.1-6-0.1zm7.4-2.1c0.3 0.2 0.5 0.4 0.8 0.5s0.5 0.2 0.8 0.2c0.4 0 0.7-0.1 1-0.4 0.2-0.2 0.4-0.5 0.4-0.9s-0.3-1-1-1.6c-0.1-0.1-0.2-0.1-0.2-0.2-0.7-0.6-1.1-1.1-1.3-1.5s-0.3-0.9-0.3-1.3c0-0.8 0.3-1.5 0.8-2.1 0.5-0.5 1.2-0.8 2-0.8 0.3 0 0.5 0 0.8 0.1s0.5 0.2 0.8 0.3v1.9c-0.2-0.2-0.4-0.4-0.7-0.5-0.2-0.1-0.5-0.2-0.8-0.2s-0.6 0.1-0.8 0.3-0.3 0.5-0.3 0.8c0 0.4 0.3 1 1 1.6l0.3 0.3c0.6 0.6 1 1.1 1.3 1.5 0.2 0.4 0.4 1 0.4 1.5 0 0.9-0.3 1.5-0.8 2s-1.2 0.8-2.1 0.8c-0.3 0-0.6 0-0.9-0.1s-0.6-0.2-0.9-0.3v-1.9zm6.4 2.1v-8.7h-1v-1.4h1v-2.7h1.8v2.7h1.4v1.4h-1.4v8.7zm8.6 0v-1c-0.3 0.4-0.5 0.7-0.9 0.9-0.3 0.2-0.7 0.3-1.1 0.3-0.8 0-1.5-0.4-1.9-1.3s-0.7-2.2-0.7-3.9 0.2-3 0.7-3.9c0.4-0.9 1.1-1.3 1.9-1.3 0.4 0 0.8 0.1 1.1 0.3s0.6 0.5 0.9 0.9v-1h1.8v10zm-2.7-5c0 1.3 0.1 2.2 0.3 2.7s0.6 0.8 1.1 0.8 0.8-0.3 1.1-0.8c0.2-0.5 0.3-1.4 0.3-2.7s-0.1-2.2-0.3-2.7-0.6-0.8-1.1-0.8-0.9 0.3-1.1 0.8-0.3 1.4-0.3 2.7zm8.2 0c0 1.3 0.1 2.2 0.3 2.7s0.6 0.8 1.1 0.8 0.9-0.3 1.1-0.8 0.3-1.4 0.3-2.7-0.1-2.2-0.3-2.7-0.6-0.8-1.1-0.8-0.9 0.3-1.1 0.8-0.3 1.4-0.3 2.7zm2.7 5v-1c-0.3 0.4-0.5 0.7-0.9 0.9-0.3 0.2-0.7 0.3-1.1 0.3-0.9 0-1.5-0.4-2-1.3-0.4-0.8-0.6-2.2-0.6-3.9 0-1.8 0.2-3.1 0.6-3.9s1.1-1.3 2-1.3c0.4 0 0.8 0.1 1.1 0.3s0.6 0.5 0.9 0.9v-6.8h1.8v15.9h-1.8zm4.1-2.9v-7.1h1.8v7.2c0 0.5 0.1 0.8 0.3 1.1 0.2 0.2 0.5 0.4 0.9 0.4s0.7-0.1 0.9-0.4c0.2-0.2 0.3-0.6 0.3-1.1v-7.2h1.9v7.1c0 1.1-0.2 1.9-0.7 2.4s-1.3 0.7-2.4 0.7-1.9-0.2-2.3-0.7c-0.5-0.5-0.7-1.3-0.7-2.4zm12.5 2.9v-1c-0.3 0.4-0.5 0.7-0.9 0.9-0.3 0.2-0.7 0.3-1.1 0.3-0.8 0-1.5-0.4-1.9-1.3s-0.7-2.2-0.7-3.9 0.2-3 0.7-3.9c0.4-0.9 1.1-1.3 1.9-1.3 0.4 0 0.8 0.1 1.1 0.3s0.6 0.5 0.9 0.9v-1h1.8v10zm-2.7-5c0 1.3 0.1 2.2 0.3 2.7s0.6 0.8 1.1 0.8 0.8-0.3 1.1-0.8c0.2-0.5 0.3-1.4 0.3-2.7s-0.1-2.2-0.3-2.7-0.6-0.8-1.1-0.8-0.9 0.3-1.1 0.8-0.3 1.4-0.3 2.7zm6.8 5v-15.8h1.8v15.9h-1.8zm9.7-5c0 1.3 0.1 2.2 0.3 2.7s0.6 0.8 1.1 0.8 0.9-0.3 1.1-0.8 0.3-1.4 0.3-2.7-0.1-2.2-0.3-2.7-0.6-0.8-1.1-0.8-0.9 0.3-1.1 0.8-0.3 1.4-0.3 2.7zm2.7 5v-1c-0.3 0.4-0.5 0.7-0.9 0.9-0.3 0.2-0.7 0.3-1.1 0.3-0.9 0-1.5-0.4-2-1.3-0.4-0.8-0.6-2.2-0.6-3.9 0-1.8 0.2-3.1 0.6-3.9s1.1-1.3 2-1.3c0.4 0 0.8 0.1 1.1 0.3s0.6 0.5 0.9 0.9v-6.8h1.8v15.9h-1.8zm5.2-6.1h2.8v-0.3c0-0.8-0.1-1.4-0.3-1.8s-0.6-0.6-1.1-0.6-0.8 0.2-1.1 0.7c-0.2 0.5-0.3 1.2-0.3 2zm4.5 2.8v0.1c0 1.1-0.3 1.9-0.8 2.5s-1.3 0.9-2.2 0.9c-1.1 0-2-0.4-2.5-1.3-0.5-0.8-0.8-2.2-0.8-4 0-1.7 0.3-3 0.8-3.9s1.3-1.3 2.4-1.3 1.9 0.4 2.4 1.2 0.7 2 0.7 3.8v0.6h-4.6v0.3c0 1.1 0.1 1.8 0.4 2.3 0.2 0.5 0.6 0.7 1.1 0.7 0.4 0 0.7-0.2 0.9-0.5s0.3-0.8 0.4-1.5zm5.5 3.3 1.3-14.9h1.8l2 10.3 2.1-10.3h1.8l1.3 14.9h-1.9l-0.6-10.4-2 10.5h-1.4l-2-10.5-0.6 10.5h-1.8zm13.5-5c0 1.2 0.1 2.1 0.4 2.7 0.2 0.6 0.6 0.9 1.1 0.9s0.9-0.3 1.2-0.9c0.2-0.6 0.4-1.5 0.4-2.7s-0.1-2.1-0.4-2.7c-0.2-0.6-0.6-0.9-1.2-0.9-0.5 0-0.9 0.3-1.1 0.9-0.3 0.6-0.4 1.5-0.4 2.7zm-1.9 0c0-1.7 0.3-3 0.9-3.9s1.4-1.3 2.5-1.3 1.9 0.4 2.5 1.3 0.9 2.2 0.9 3.9-0.3 3-0.9 3.9-1.4 1.3-2.5 1.3-1.9-0.4-2.5-1.3-0.9-2.2-0.9-3.9zm8.6 5v-10h1.8v1c0.2-0.4 0.5-0.6 0.9-0.8s0.8-0.3 1.2-0.3c0.7 0 1.3 0.2 1.6 0.6 0.4 0.4 0.5 1 0.5 1.9v7.6h-1.9v-6.7c0-0.7-0.1-1.1-0.3-1.4-0.2-0.2-0.5-0.4-0.9-0.4s-0.7 0.1-0.9 0.4-0.3 0.6-0.3 1.1v7h-1.7zm8.5 0v-8.7h-1v-1.4h1v-2.7h1.8v2.7h1.4v1.4h-1.4v8.7zm5.7-6.1h2.8v-0.3c0-0.8-0.1-1.4-0.3-1.8s-0.6-0.6-1.1-0.6-0.8 0.2-1.1 0.7c-0.2 0.5-0.3 1.2-0.3 2zm4.5 2.8v0.1c0 1.1-0.3 1.9-0.8 2.5s-1.3 0.9-2.2 0.9c-1.1 0-2-0.4-2.5-1.3-0.5-0.8-0.8-2.2-0.8-4 0-1.7 0.3-3 0.8-3.9s1.3-1.3 2.4-1.3 1.9 0.4 2.4 1.2 0.7 2 0.7 3.8v0.6h-4.6v0.3c0 1.1 0.1 1.8 0.4 2.3 0.2 0.5 0.6 0.7 1.1 0.7 0.4 0 0.7-0.2 0.9-0.5s0.3-0.8 0.4-1.5zm1.3 1.2c0.3 0.2 0.5 0.4 0.8 0.5s0.5 0.2 0.8 0.2c0.4 0 0.7-0.1 1-0.4 0.2-0.2 0.4-0.5 0.4-0.9s-0.3-1-1-1.6c-0.1-0.1-0.2-0.1-0.2-0.2-0.7-0.6-1.1-1.1-1.3-1.5s-0.3-0.9-0.3-1.3c0-0.8 0.3-1.5 0.8-2.1 0.5-0.5 1.2-0.8 2-0.8 0.3 0 0.5 0 0.8 0.1s0.5 0.2 0.8 0.3v1.9c-0.2-0.2-0.4-0.4-0.6-0.5s-0.5-0.2-0.8-0.2-0.6 0.1-0.8 0.3-0.3 0.5-0.3 0.8c0 0.4 0.3 1 1 1.6l0.3 0.3c0.6 0.6 1 1.1 1.3 1.5 0.2 0.4 0.4 1 0.4 1.5 0 0.9-0.3 1.5-0.8 2s-1.2 0.8-2.1 0.8c-0.3 0-0.6 0-0.9-0.1s-0.6-0.2-0.9-0.3v-1.9zm16.7 1.8c-0.3 0.2-0.7 0.3-1 0.4s-0.7 0.1-1.1 0.1c-1.5 0-2.7-0.6-3.4-1.9-0.8-1.3-1.1-3.1-1.1-5.6 0-2.6 0.4-4.5 1.2-5.8s2-2 3.6-2c0.3 0 0.7 0 1 0.1s0.6 0.2 0.9 0.3v1.9c-0.3-0.1-0.6-0.2-0.8-0.3-0.3-0.1-0.5-0.1-0.7-0.1-1.1 0-1.9 0.5-2.3 1.4-0.5 0.9-0.7 2.4-0.7 4.5 0 1.9 0.2 3.3 0.7 4.2s1.2 1.4 2.2 1.4c0.3 0 0.6 0 0.9-0.1s0.6-0.2 0.9-0.4zm1.6 0.3v-15.8h1.8v15.9h-1.8zm8.3 0v-1c-0.3 0.4-0.5 0.7-0.9 0.9-0.3 0.2-0.7 0.3-1.1 0.3-0.8 0-1.5-0.4-1.9-1.3s-0.7-2.2-0.7-3.9 0.2-3 0.7-3.9c0.4-0.9 1.1-1.3 1.9-1.3 0.4 0 0.8 0.1 1.1 0.3s0.6 0.5 0.9 0.9v-1h1.8v10zm-2.7-5c0 1.3 0.1 2.2 0.3 2.7s0.6 0.8 1.1 0.8 0.8-0.3 1.1-0.8c0.2-0.5 0.3-1.4 0.3-2.7s-0.1-2.2-0.3-2.7-0.6-0.8-1.1-0.8-0.9 0.3-1.1 0.8-0.3 1.4-0.3 2.7zm6.8 5v-10h1.8v1.5c0.3-0.5 0.6-0.9 1-1.2s0.9-0.4 1.5-0.4v1.9h-0.4c-0.7 0-1.2 0.2-1.6 0.5-0.3 0.4-0.5 0.9-0.5 1.7v6.1zm7-5c0 1.2 0.1 2.1 0.4 2.7 0.2 0.6 0.6 0.9 1.1 0.9s0.9-0.3 1.2-0.9c0.2-0.6 0.4-1.5 0.4-2.7s-0.1-2.1-0.4-2.7c-0.2-0.6-0.6-0.9-1.2-0.9-0.5 0-0.9 0.3-1.1 0.9s-0.4 1.5-0.4 2.7zm-1.8 0c0-1.7 0.3-3 0.9-3.9s1.4-1.3 2.5-1.3 1.9 0.4 2.5 1.3 0.9 2.2 0.9 3.9-0.3 3-0.9 3.9-1.4 1.3-2.5 1.3-1.9-0.4-2.5-1.3c-0.7-0.9-0.9-2.2-0.9-3.9zm7.9 2.9c0.3 0.2 0.5 0.4 0.8 0.5s0.5 0.2 0.8 0.2c0.4 0 0.7-0.1 1-0.4 0.2-0.2 0.4-0.5 0.4-0.9s-0.3-1-1-1.6c-0.1-0.1-0.2-0.1-0.2-0.2-0.7-0.6-1.1-1.1-1.3-1.5s-0.3-0.9-0.3-1.3c0-0.8 0.3-1.5 0.8-2.1 0.5-0.5 1.2-0.8 2-0.8 0.3 0 0.5 0 0.8 0.1s0.5 0.2 0.8 0.3v1.9c-0.2-0.2-0.4-0.4-0.6-0.5s-0.5-0.2-0.8-0.2-0.6 0.1-0.8 0.3-0.3 0.5-0.3 0.8c0 0.4 0.3 1 1 1.6l0.3 0.3c0.6 0.6 1 1.1 1.3 1.5 0.2 0.4 0.4 1 0.4 1.5 0 0.9-0.3 1.5-0.8 2s-1.2 0.8-2.1 0.8c-0.3 0-0.6 0-0.9-0.1s-0.6-0.2-0.9-0.3zm-253.3-18h258v1.2h-258zm37.7-9.9v-22.9h10.8v3.2c1-1.3 2-2.3 3.2-2.9s2.5-1 3.9-1c2.4 0 4.4 0.7 5.8 2.2s2.1 3.5 2.1 6v15.4h-11.1v-11.5c0-1.1-0.1-1.9-0.4-2.4-0.2-0.4-0.7-0.6-1.2-0.6-0.6 0-1.1 0.3-1.5 0.8-0.3 0.5-0.5 1.2-0.5 2.2v11.5zm42.3-30c0 1.6-0.5 2.9-1.6 3.9s-2.5 1.4-4.4 1.4c-1.8 0-3.3-0.5-4.4-1.5s-1.6-2.3-1.6-3.9 0.5-2.9 1.6-3.8 2.6-1.4 4.4-1.4c1.9 0 3.3 0.5 4.4 1.4 1 1 1.6 2.3 1.6 3.9zm-11.6 30v-22.9h11.1v22.9zm16.2 0v-22.9h10.6v3.2c0.9-1.4 1.8-2.4 2.9-3s2.3-1 3.6-1c1.6 0 2.9 0.4 4 1.2s1.9 2 2.6 3.7c0.9-1.6 1.9-2.8 3.2-3.6s2.7-1.2 4.2-1.2c2.2 0 4 0.7 5.4 2.2 1.3 1.5 2 3.5 2 6v15.4h-10.7v-11.5c0-1.2-0.1-2-0.3-2.4s-0.6-0.6-1.1-0.6c-0.6 0-1 0.2-1.3 0.7s-0.4 1.2-0.4 2.3v11.5h-10.6v-11.5c0-1.1-0.1-1.9-0.3-2.4-0.3-0.4-0.7-0.6-1.2-0.6-0.6 0-1 0.2-1.3 0.7s-0.4 1.2-0.4 2.3v11.5zm55.5-8.2c0.8 0 1.5-0.3 2-0.9s0.8-1.3 0.8-2.3c0-0.9-0.2-1.7-0.7-2.3s-1.2-0.9-2-0.9-1.5 0.3-2 0.9-0.7 1.3-0.7 2.3c0 0.9 0.2 1.7 0.7 2.3s1.1 0.9 1.9 0.9zm13.4-3.2c0 1.7-0.4 3.4-1.1 4.9-0.7 1.6-1.8 2.9-3.2 4.1-1.2 1-2.6 1.8-4.1 2.4-1.5 0.5-3.2 0.8-5 0.8s-3.4-0.3-5-0.8c-1.5-0.5-2.9-1.3-4.1-2.4-1.4-1.1-2.4-2.5-3.2-4.1-0.7-1.6-1.1-3.2-1.1-5 0-1.7 0.4-3.4 1.1-5s1.8-2.9 3.2-4.1c1.2-1 2.6-1.8 4.1-2.4 1.5-0.5 3.2-0.8 5-0.8s3.5 0.3 5 0.8 2.9 1.3 4.2 2.4 2.4 2.5 3.1 4.1c0.7 1.8 1.1 3.4 1.1 5.1zm3.8 11.4v-22.9h10.8v3.2c1-1.3 2-2.3 3.2-2.9s2.5-1 3.9-1c2.4 0 4.4 0.7 5.8 2.2s2.1 3.5 2.1 6v15.4h-11.1v-11.5c0-1.1-0.1-1.9-0.4-2.4-0.2-0.4-0.7-0.6-1.2-0.6-0.6 0-1.1 0.3-1.5 0.8-0.3 0.5-0.5 1.2-0.5 2.2v11.5zm31.9 0v-14.4h-3.1v-8.4h3.2v-7.6h11.1v7.6h3.2v8.4h-3.2v14.4zm43.3-9.6h-15.8v0.4c0 1.2 0.2 2 0.6 2.6s1.1 0.9 1.9 0.9c0.5 0 1-0.2 1.4-0.5s0.7-0.7 0.9-1.3l10.3 0.7c-0.9 2.5-2.4 4.4-4.6 5.7s-4.9 2-8.1 2c-1.8 0-3.4-0.3-5-0.8-1.5-0.5-2.9-1.3-4.2-2.4-1.4-1.2-2.4-2.6-3.2-4.1-0.7-1.6-1.1-3.2-1.1-4.9s0.4-3.4 1.1-5 1.8-2.9 3.2-4.1c1.2-1 2.6-1.8 4.1-2.4 1.5-0.5 3.2-0.8 5-0.8 2.5 0 4.7 0.5 6.6 1.5 2 1 3.6 2.4 4.9 4.3 0.7 1 1.2 2 1.5 3.2s0.5 2.4 0.5 3.8v0.8 0.4zm-15.7-5h5c0-0.9-0.3-1.6-0.7-2s-1-0.6-1.8-0.6c-0.7 0-1.3 0.2-1.7 0.7-0.4 0.4-0.7 1.1-0.8 1.9zm16.8 13 2.9-7.1c1.2 0.8 2.3 1.5 3.4 1.9 1 0.4 1.9 0.6 2.6 0.6 0.6 0 1-0.1 1.3-0.3s0.5-0.6 0.5-1c0-0.6-0.7-1-2-1.3-0.4-0.1-0.8-0.2-1-0.2-2.2-0.5-3.7-1.3-4.7-2.4-1-1-1.5-2.4-1.5-4.1 0-2.4 1-4.4 3-5.9s4.6-2.3 7.8-2.3c1.6 0 3.1 0.2 4.6 0.5s2.8 0.8 4.1 1.4l-2.7 6.9c-1-0.7-2-1.2-2.8-1.6-0.8-0.3-1.5-0.5-2.1-0.5-0.5 0-0.9 0.1-1.2 0.3s-0.5 0.5-0.5 0.9c0 0.6 0.9 1 2.6 1.4 0.4 0.1 0.7 0.2 1 0.2 2.2 0.5 3.9 1.3 4.9 2.3 1.1 1 1.6 2.4 1.6 4 0 2.6-1 4.7-3.1 6.3s-4.8 2.4-8.2 2.4c-1.9 0-3.7-0.2-5.4-0.6-1.8-0.4-3.5-1-5.1-1.8z"/>   </g> </svg>
